<?xml version="1.0" encoding="utf-8"?>
<!-- Generator: Adobe Illustrator 24.0.3, SVG Export Plug-In . SVG Version: 6.00 Build 0)  -->
<svg version="1.1" id="Layer_1" xmlns="http://www.w3.org/2000/svg" xmlns:xlink="http://www.w3.org/1999/xlink" x="0px" y="0px"
	 viewBox="0 0 132 63" style="enable-background:new 0 0 132 63;" xml:space="preserve">
<style type="text/css">
	.st0{fill:none;}
	.st1{fill:#795035;}
	.st2{fill:#DA1F38;}
	.st3{fill:#F47A54;}
	.st4{fill:#F1E161;}
	.st5{fill:#48A054;}
	.st6{fill:#5FA6DA;}
	.st7{fill:#9254A1;}
	.st8{fill:#515D93;}
	.st9{fill:#222222;}
	.st10{fill:#3077B6;}
	.st11{fill:#010101;}
</style>
<g>
	<g>
		<g>
			<path class="st0" d="M88.99,20.99c0,0-0.01-0.01-0.01-0.01c0.12,0.21,0.23,0.43,0.34,0.65c-0.01-0.02-0.02-0.04-0.03-0.06
				C89.19,21.37,89.09,21.18,88.99,20.99z"/>
		</g>
		<g>
			<path class="st0" d="M89.47,21.92c0,0,0.01,0.01,0.01,0.01c-0.05-0.11-0.11-0.21-0.16-0.31c0.01,0.02,0.02,0.04,0.03,0.06
				C89.39,21.76,89.43,21.84,89.47,21.92z"/>
		</g>
		<g>
			<path class="st0" d="M87.21,18.23c0,0-0.01-0.01-0.01-0.01c0.13,0.18,0.27,0.36,0.4,0.54c0,0,0-0.01-0.01-0.01
				C87.46,18.57,87.34,18.4,87.21,18.23z"/>
		</g>
		<g>
			<path class="st0" d="M90.02,23.12c-0.03-0.07-0.05-0.13-0.08-0.2c0.15,0.34,0.29,0.69,0.42,1.03c0-0.01,0-0.01-0.01-0.02
				C90.24,23.66,90.13,23.39,90.02,23.12z"/>
		</g>
		<g>
			<path class="st0" d="M87.85,19.13c0,0-0.01-0.01-0.01-0.01c0.12,0.18,0.24,0.36,0.36,0.55c0,0-0.01-0.01-0.01-0.01
				C88.08,19.48,87.97,19.3,87.85,19.13z"/>
		</g>
		<g>
			<path class="st0" d="M88.44,20.05c0,0-0.01-0.01-0.01-0.01c0.12,0.19,0.23,0.38,0.34,0.58c-0.01-0.01-0.01-0.02-0.02-0.03
				C88.65,20.41,88.55,20.23,88.44,20.05z"/>
		</g>
		<g>
			<path class="st0" d="M86.5,17.32C86.49,17.32,86.49,17.31,86.5,17.32c0.15,0.18,0.3,0.37,0.45,0.56c0,0,0,0,0,0
				C86.8,17.69,86.65,17.5,86.5,17.32z"/>
		</g>
		<g>
			<path class="st0" d="M90.85,25.41c0,0.01,0.01,0.02,0.01,0.04c-0.04-0.15-0.09-0.3-0.14-0.45c0,0.01,0,0.01,0.01,0.02
				C90.77,25.15,90.81,25.28,90.85,25.41z"/>
		</g>
		<g>
			<path class="st0" d="M90.46,24.25c0.01,0.02,0.02,0.04,0.02,0.07c-0.04-0.12-0.08-0.24-0.13-0.36c0,0.01,0,0.01,0.01,0.02
				C90.39,24.06,90.43,24.16,90.46,24.25z"/>
		</g>
		<g>
			<path class="st0" d="M90.51,24.38c-0.01-0.02-0.02-0.04-0.02-0.07c0.08,0.23,0.16,0.46,0.24,0.68c0-0.01,0-0.01-0.01-0.02
				C90.65,24.78,90.58,24.58,90.51,24.38z"/>
		</g>
		<g>
			<path class="st0" d="M91.15,26.53c0,0.01,0,0.01,0.01,0.02c-0.04-0.16-0.08-0.33-0.13-0.49c0,0.01,0,0.01,0.01,0.02
				C91.08,26.23,91.12,26.38,91.15,26.53z"/>
		</g>
		<g>
			<path class="st0" d="M90.87,25.48c0-0.01-0.01-0.02-0.01-0.04c0.06,0.2,0.12,0.41,0.18,0.61c0-0.01,0-0.01-0.01-0.02
				C90.98,25.85,90.92,25.67,90.87,25.48z"/>
		</g>
		<g>
			<path class="st0" d="M89.49,21.95c0,0-0.01-0.01-0.01-0.01c0.16,0.32,0.31,0.65,0.46,0.98c-0.03-0.07-0.06-0.13-0.09-0.19
				C89.73,22.47,89.61,22.21,89.49,21.95z"/>
		</g>
		<g>
			<path class="st0" d="M88.14,10.98c0,0,0.01,0.01,0.01,0.01C88.15,10.99,88.15,10.98,88.14,10.98z"/>
		</g>
		<g>
			<path class="st0" d="M87.04,10.01c0.02,0.01,0.03,0.03,0.05,0.04C87.08,10.04,87.06,10.02,87.04,10.01z"/>
		</g>
		<g>
			<path class="st0" d="M87.59,10.48c0.01,0.01,0.03,0.02,0.04,0.03C87.62,10.5,87.61,10.49,87.59,10.48z"/>
		</g>
		<g>
			<path class="st0" d="M86.5,9.56c0.02,0.01,0.03,0.03,0.05,0.04C86.53,9.59,86.51,9.57,86.5,9.56z"/>
		</g>
		<g>
			<path class="st0" d="M85.33,8.67c0.03,0.02,0.05,0.04,0.08,0.06C85.39,8.71,85.36,8.69,85.33,8.67z"/>
		</g>
		<g>
			<path class="st0" d="M85.95,9.13c0.01,0.01,0.03,0.02,0.04,0.03C85.97,9.15,85.96,9.14,85.95,9.13z"/>
		</g>
		<g>
			<path class="st0" d="M93.5,24.32c0.13,0.42,0.26,0.84,0.37,1.27C93.76,25.17,93.64,24.74,93.5,24.32z"/>
		</g>
		<g>
			<path class="st0" d="M87.66,14.35c0.89,0.95,1.69,1.95,2.42,3.01C89.35,16.3,88.54,15.3,87.66,14.35z"/>
		</g>
		<g>
			<path class="st0" d="M90.13,13.01C90.13,13.01,90.13,13.01,90.13,13.01C90.13,13.01,90.13,13.01,90.13,13.01z"/>
		</g>
		<g>
			<path class="st0" d="M93.5,24.32c-0.27-0.84-0.58-1.67-0.93-2.49c-0.17-0.39-0.35-0.78-0.54-1.17c0.19,0.38,0.37,0.77,0.54,1.17
				C92.93,22.65,93.24,23.48,93.5,24.32z"/>
		</g>
		<g>
			<path class="st0" d="M90.08,17.35c0.49,0.7,0.94,1.43,1.35,2.18C91.02,18.78,90.57,18.06,90.08,17.35z"/>
		</g>
		<g>
			<path class="st0" d="M45.4,16.75c0.61-0.84,1.27-1.64,1.99-2.41C46.67,15.11,46.02,15.92,45.4,16.75z"/>
		</g>
		<g>
			<path class="st0" d="M44.02,18.84c0.17-0.28,0.34-0.56,0.52-0.83C44.36,18.28,44.19,18.55,44.02,18.84z"/>
		</g>
		<g>
			<path class="st0" d="M55.72,18.14c0.17-0.14,0.35-0.27,0.53-0.41C56.07,17.87,55.89,18,55.72,18.14z"/>
		</g>
		<g>
			<path class="st0" d="M52.35,17.36c-0.1,0.1-0.2,0.2-0.3,0.3c-0.38,0.39-0.75,0.78-1.1,1.2C51.39,18.34,51.85,17.84,52.35,17.36z"
				/>
		</g>
		<g>
			<path class="st0" d="M67.52,11.23c2.9,0,5.71,0.55,8.35,1.64c2.56,1.05,4.85,2.56,6.82,4.48c-1.97-1.92-4.27-3.43-6.82-4.48
				C73.23,11.79,70.42,11.23,67.52,11.23c-2.9,0-5.71,0.55-8.35,1.64c-2.56,1.05-4.85,2.56-6.82,4.48c1.97-1.92,4.27-3.43,6.82-4.48
				C61.82,11.79,64.63,11.23,67.52,11.23z"/>
		</g>
		<g>
			<path class="st0" d="M82.99,17.66c-0.1-0.1-0.19-0.2-0.3-0.3c0.99,0.96,1.86,2,2.63,3.11C84.64,19.47,83.86,18.54,82.99,17.66z"
				/>
		</g>
		<g>
			<path class="st0" d="M87.69,24.98c0.37,0.98,0.66,1.98,0.87,3C88.35,26.97,88.06,25.96,87.69,24.98z"/>
		</g>
		<g>
			<path class="st0" d="M48.42,22.62c0.39-0.74,0.82-1.46,1.29-2.15C49.24,21.16,48.81,21.88,48.42,22.62z"/>
		</g>
		<g>
			<path class="st0" d="M50.82,19.01c0.37-0.44,0.76-0.87,1.17-1.29C51.58,18.14,51.19,18.57,50.82,19.01z"/>
		</g>
		<g>
			<path class="st0" d="M52.74,21.15c0.13-0.17,0.27-0.34,0.41-0.51C53.01,20.81,52.87,20.98,52.74,21.15z"/>
		</g>
		<g>
			<path class="st0" d="M55.03,18.72c0.11-0.1,0.22-0.19,0.33-0.28C55.25,18.53,55.14,18.62,55.03,18.72z"/>
		</g>
		<g>
			<path class="st0" d="M84.77,8.27c0.02,0.02,0.05,0.03,0.07,0.05C84.81,8.3,84.79,8.29,84.77,8.27z"/>
		</g>
		<g>
			<path class="st0" d="M64.74,14.22c0.22-0.03,0.43-0.05,0.65-0.08C65.17,14.17,64.96,14.19,64.74,14.22z"/>
		</g>
		<g>
			<path class="st0" d="M53.46,20.3c0.09-0.11,0.19-0.22,0.28-0.32C53.64,20.08,53.55,20.19,53.46,20.3z"/>
		</g>
		<g>
			<path class="st0" d="M47.75,24.01c-0.6,1.38-1.04,2.81-1.32,4.28c0,0,0,0,0,0c0.26-1.37,0.67-2.71,1.21-4.02
				C47.68,24.18,47.71,24.1,47.75,24.01z"/>
		</g>
		<g>
			<path class="st0" d="M44.21,25.39C44.21,25.39,44.21,25.39,44.21,25.39c0-0.01,0-0.01,0.01-0.02c0.05-0.16,0.1-0.31,0.15-0.47
				c0-0.01,0.01-0.02,0.01-0.03c-0.17,0.5-0.32,1-0.45,1.51c0,0,0,0,0,0C44.01,26.04,44.11,25.71,44.21,25.39
				C44.21,25.39,44.21,25.39,44.21,25.39z"/>
		</g>
		<g>
			<path class="st0" d="M44.38,24.84c0,0.01-0.01,0.02-0.01,0.03c0.08-0.25,0.16-0.49,0.25-0.73c-0.02,0.04-0.03,0.08-0.04,0.13
				C44.51,24.45,44.45,24.65,44.38,24.84z"/>
		</g>
		<g>
			<path class="st0" d="M87.19,18.21c0,0,0.01,0.01,0.01,0.01c-0.08-0.11-0.17-0.22-0.25-0.34c0,0,0,0,0,0
				C87.03,17.99,87.11,18.1,87.19,18.21z"/>
		</g>
		<g>
			<path class="st0" d="M86.48,17.3C86.48,17.31,86.49,17.31,86.48,17.3c-0.07-0.08-0.14-0.18-0.22-0.27c0,0,0,0,0,0
				C86.34,17.12,86.41,17.21,86.48,17.3z"/>
		</g>
		<g>
			<path class="st0" d="M86.26,17.03c-0.23-0.28-0.48-0.55-0.72-0.81C85.79,16.49,86.03,16.76,86.26,17.03
				C86.26,17.04,86.26,17.04,86.26,17.03z"/>
		</g>
		<g>
			<path class="st0" d="M84.72,15.39c-2.23-2.18-4.84-3.89-7.73-5.08c-3-1.24-6.18-1.86-9.47-1.86c3.28,0,6.47,0.63,9.47,1.86
				C79.89,11.5,82.49,13.21,84.72,15.39z"/>
		</g>
		<g>
			<path class="st0" d="M87.83,19.11c0,0,0.01,0.01,0.01,0.01c-0.08-0.12-0.16-0.24-0.25-0.36c0,0,0,0.01,0.01,0.01
				C87.68,18.88,87.76,18.99,87.83,19.11z"/>
		</g>
		<g>
			<path class="st0" d="M88.43,20.02c0,0,0.01,0.01,0.01,0.01c-0.08-0.12-0.15-0.25-0.23-0.37c0,0,0.01,0.01,0.01,0.01
				C88.28,19.79,88.36,19.91,88.43,20.02z"/>
		</g>
		<g>
			<path class="st0" d="M67.52,8.45c-3.28,0-6.47,0.63-9.47,1.86c-2.9,1.19-5.5,2.9-7.73,5.08c2.23-2.18,4.83-3.89,7.73-5.08
				C61.05,9.07,64.24,8.45,67.52,8.45z"/>
		</g>
		<g>
			<path class="st0" d="M44.75,23.82c0,0.01-0.01,0.02-0.01,0.04c0.12-0.31,0.24-0.62,0.38-0.93c-0.01,0.02-0.02,0.05-0.03,0.07
				C44.96,23.27,44.85,23.54,44.75,23.82z"/>
		</g>
		<g>
			<path class="st0" d="M88.97,20.96c0,0,0.01,0.01,0.01,0.01c-0.07-0.12-0.14-0.24-0.21-0.36c0.01,0.01,0.01,0.02,0.02,0.03
				C88.85,20.75,88.91,20.85,88.97,20.96z"/>
		</g>
		<g>
			<path class="st0" d="M46.13,20.86c-0.37,0.67-0.71,1.36-1.02,2.06C45.42,22.22,45.76,21.53,46.13,20.86z"/>
		</g>
		<g>
			<path class="st0" d="M44.72,23.89c0-0.01,0.01-0.02,0.01-0.04c-0.04,0.09-0.07,0.19-0.11,0.28c0-0.01,0.01-0.02,0.01-0.02
				C44.66,24.04,44.69,23.96,44.72,23.89z"/>
		</g>
		<g>
			<path class="st0" d="M48.02,17.98c-0.47,0.61-0.9,1.24-1.31,1.89C47.11,19.22,47.55,18.59,48.02,17.98z"/>
		</g>
		<g>
			<path class="st0" d="M49.06,9.16c0.01-0.01,0.03-0.02,0.04-0.03C49.08,9.14,49.07,9.15,49.06,9.16z"/>
		</g>
		<g>
			<path class="st0" d="M56.56,4.96c0.06-0.02,0.12-0.04,0.18-0.07C56.68,4.92,56.62,4.94,56.56,4.96z"/>
		</g>
		<g>
			<path class="st0" d="M57.24,4.71c0.09-0.03,0.17-0.06,0.26-0.09C57.41,4.65,57.32,4.68,57.24,4.71z"/>
		</g>
		<g>
			<path class="st0" d="M55.88,5.23c0.07-0.03,0.14-0.05,0.21-0.08C56.02,5.18,55.95,5.2,55.88,5.23z"/>
		</g>
		<g>
			<path class="st0" d="M57.93,4.47c0.09-0.03,0.19-0.06,0.28-0.09C58.12,4.41,58.02,4.44,57.93,4.47z"/>
		</g>
		<g>
			<path class="st0" d="M54.56,5.82c0.07-0.03,0.14-0.06,0.21-0.1C54.7,5.75,54.63,5.78,54.56,5.82z"/>
		</g>
		<g>
			<path class="st0" d="M55.21,5.52c0.07-0.03,0.15-0.06,0.22-0.09C55.36,5.46,55.29,5.49,55.21,5.52z"/>
		</g>
		<g>
			<path class="st0" d="M62.23,3.4c0.11-0.02,0.23-0.04,0.35-0.06C62.46,3.36,62.34,3.38,62.23,3.4z"/>
		</g>
		<g>
			<path class="st0" d="M61.5,3.53c0.1-0.02,0.2-0.04,0.3-0.06C61.7,3.5,61.6,3.51,61.5,3.53z"/>
		</g>
		<g>
			<path class="st0" d="M53.91,6.13c0.06-0.03,0.13-0.06,0.19-0.09C54.03,6.07,53.97,6.1,53.91,6.13z"/>
		</g>
		<g>
			<path class="st0" d="M60.77,3.69c0.11-0.02,0.22-0.05,0.32-0.07C60.98,3.64,60.88,3.66,60.77,3.69z"/>
		</g>
		<g>
			<path class="st0" d="M60.05,3.86c0.08-0.02,0.16-0.04,0.24-0.06C60.21,3.82,60.13,3.84,60.05,3.86z"/>
		</g>
		<g>
			<path class="st0" d="M59.34,4.05c0.07-0.02,0.14-0.04,0.21-0.06C59.48,4.01,59.41,4.03,59.34,4.05z"/>
		</g>
		<g>
			<path class="st0" d="M58.63,4.25c0.08-0.02,0.15-0.04,0.23-0.07C58.78,4.21,58.71,4.23,58.63,4.25z"/>
		</g>
		<g>
			<path class="st0" d="M50.21,8.32c0.01-0.01,0.03-0.02,0.04-0.03C50.24,8.3,50.23,8.31,50.21,8.32z"/>
		</g>
		<g>
			<path class="st0" d="M48.5,9.6c0.01-0.01,0.02-0.01,0.03-0.02C48.52,9.58,48.51,9.59,48.5,9.6z"/>
		</g>
		<g>
			<path class="st0" d="M47.95,10.05c0.02-0.01,0.03-0.03,0.05-0.04C47.98,10.02,47.97,10.04,47.95,10.05z"/>
		</g>
		<g>
			<path class="st0" d="M65.67,14.11c0.19-0.02,0.38-0.03,0.57-0.04C66.05,14.08,65.86,14.09,65.67,14.11z"/>
		</g>
		<g>
			<path class="st0" d="M47.41,10.51c0.01-0.01,0.03-0.02,0.04-0.03C47.44,10.49,47.43,10.5,47.41,10.51z"/>
		</g>
		<g>
			<path class="st0" d="M49.63,8.73c0.02-0.01,0.04-0.03,0.06-0.04C49.67,8.71,49.65,8.72,49.63,8.73z"/>
		</g>
		<g>
			<path class="st0" d="M53.27,6.46c0.05-0.02,0.09-0.05,0.14-0.07C53.36,6.41,53.31,6.44,53.27,6.46z"/>
		</g>
		<g>
			<path class="st0" d="M46.89,10.99c0,0,0.01-0.01,0.01-0.01C46.9,10.98,46.89,10.99,46.89,10.99z"/>
		</g>
		<g>
			<path class="st0" d="M52.01,7.16c0.04-0.02,0.07-0.04,0.11-0.06C52.09,7.12,52.05,7.14,52.01,7.16z"/>
		</g>
		<g>
			<path class="st0" d="M62.97,3.28c0.12-0.02,0.25-0.03,0.38-0.05C63.22,3.24,63.09,3.26,62.97,3.28z"/>
		</g>
		<g>
			<path class="st0" d="M52.64,6.8c0.03-0.02,0.06-0.03,0.09-0.05C52.7,6.77,52.67,6.79,52.64,6.8z"/>
		</g>
		<g>
			<path class="st0" d="M50.8,7.92c0.03-0.02,0.06-0.04,0.09-0.06C50.86,7.88,50.83,7.9,50.8,7.92z"/>
		</g>
		<g>
			<path class="st0" d="M51.4,7.53c0.02-0.01,0.05-0.03,0.07-0.04C51.45,7.51,51.43,7.52,51.4,7.53z"/>
		</g>
		<g>
			<path class="st0" d="M69.6,3.01c0.07,0,0.15,0.01,0.22,0.01C69.75,3.02,69.67,3.02,69.6,3.01z"/>
		</g>
		<g>
			<path class="st0" d="M80.26,5.71c0.08,0.03,0.15,0.07,0.23,0.1C80.41,5.78,80.34,5.75,80.26,5.71z"/>
		</g>
		<g>
			<path class="st0" d="M79.6,5.42c0.08,0.03,0.15,0.06,0.23,0.1C79.76,5.48,79.68,5.45,79.6,5.42z"/>
		</g>
		<g>
			<path class="st0" d="M78.28,4.89c0.07,0.03,0.14,0.05,0.21,0.08C78.42,4.94,78.35,4.91,78.28,4.89z"/>
		</g>
		<g>
			<path class="st0" d="M78.93,5.14c0.08,0.03,0.15,0.06,0.23,0.09C79.09,5.2,79.01,5.17,78.93,5.14z"/>
		</g>
		<g>
			<path class="st0" d="M77.52,4.61c0.1,0.03,0.19,0.07,0.29,0.1C77.71,4.68,77.61,4.64,77.52,4.61z"/>
		</g>
		<g>
			<path class="st0" d="M76.16,4.18c0.09,0.03,0.17,0.05,0.26,0.08C76.33,4.23,76.24,4.2,76.16,4.18z"/>
		</g>
		<g>
			<path class="st0" d="M76.81,4.38c0.1,0.03,0.21,0.06,0.31,0.1C77.01,4.44,76.91,4.41,76.81,4.38z"/>
		</g>
		<g>
			<path class="st0" d="M82.9,7.08c0.04,0.03,0.09,0.05,0.14,0.08C82.99,7.14,82.94,7.11,82.9,7.08z"/>
		</g>
		<g>
			<path class="st0" d="M80.92,6.03c0.07,0.04,0.15,0.07,0.22,0.11C81.07,6.1,80.99,6.06,80.92,6.03z"/>
		</g>
		<g>
			<path class="st0" d="M83.54,7.47c0.03,0.02,0.07,0.04,0.1,0.06C83.61,7.51,83.58,7.49,83.54,7.47z"/>
		</g>
		<g>
			<path class="st0" d="M63.71,3.18c0.09-0.01,0.18-0.02,0.27-0.03C63.89,3.16,63.8,3.16,63.71,3.18z"/>
		</g>
		<g>
			<path class="st0" d="M82.29,6.74c0.04,0.02,0.08,0.04,0.11,0.06C82.37,6.78,82.33,6.76,82.29,6.74z"/>
		</g>
		<g>
			<path class="st0" d="M81.64,6.39c0.05,0.02,0.1,0.05,0.14,0.07C81.73,6.44,81.68,6.41,81.64,6.39z"/>
		</g>
		<g>
			<path class="st0" d="M84.15,7.86c0.03,0.02,0.06,0.04,0.1,0.06C84.21,7.9,84.18,7.88,84.15,7.86z"/>
		</g>
		<g>
			<path class="st0" d="M65.98,2.98c0.51-0.02,1.01-0.04,1.53-0.04C67,2.94,66.49,2.95,65.98,2.98z"/>
		</g>
		<g>
			<path class="st0" d="M70.4,3.08c0.06,0.01,0.12,0.01,0.18,0.02C70.52,3.09,70.46,3.08,70.4,3.08z"/>
		</g>
		<g>
			<path class="st0" d="M71.03,3.14c0.1,0.01,0.2,0.02,0.31,0.03C71.23,3.16,71.13,3.15,71.03,3.14z"/>
		</g>
		<g>
			<path class="st0" d="M75.47,3.98c0.08,0.02,0.16,0.04,0.24,0.06C75.63,4.03,75.55,4.01,75.47,3.98z"/>
		</g>
		<g>
			<path class="st0" d="M64.47,3.09c0.04,0,0.09-0.01,0.13-0.01C64.55,3.08,64.51,3.09,64.47,3.09z"/>
		</g>
		<g>
			<path class="st0" d="M65.22,3.03c0.05,0,0.11-0.01,0.16-0.01C65.33,3.02,65.27,3.02,65.22,3.03z"/>
		</g>
		<g>
			<path class="st0" d="M71.66,3.22c0.14,0.02,0.28,0.04,0.42,0.06C71.94,3.26,71.8,3.24,71.66,3.22z"/>
		</g>
		<g>
			<path class="st0" d="M74.72,3.79C74.81,3.82,74.9,3.84,75,3.86C74.9,3.84,74.81,3.82,74.72,3.79z"/>
		</g>
		<g>
			<path class="st0" d="M73.93,3.61c0.12,0.02,0.23,0.05,0.35,0.07C74.16,3.66,74.04,3.64,73.93,3.61z"/>
		</g>
		<g>
			<path class="st0" d="M73.22,3.47c0.11,0.02,0.22,0.04,0.33,0.06C73.44,3.51,73.33,3.49,73.22,3.47z"/>
		</g>
		<g>
			<path class="st0" d="M72.43,3.34c0.13,0.02,0.26,0.04,0.38,0.06C72.69,3.37,72.56,3.36,72.43,3.34z"/>
		</g>
		<g>
			<path class="st0" d="M67.52,2.94L67.52,2.94c0.52,0,1.03,0.01,1.54,0.04C68.55,2.95,68.04,2.94,67.52,2.94z"/>
		</g>
		<g>
			<path class="st0" d="M79.67,18.43c0.11,0.1,0.23,0.19,0.34,0.29C79.9,18.62,79.79,18.52,79.67,18.43z"/>
		</g>
		<g>
			<path class="st0" d="M81.31,19.98c0.1,0.11,0.2,0.22,0.3,0.33C81.5,20.2,81.41,20.09,81.31,19.98z"/>
		</g>
		<g>
			<path class="st0" d="M84.66,25.09c0.16,0.36,0.3,0.73,0.43,1.1c0,0,0,0,0.01,0c-0.62-1.74-1.51-3.38-2.65-4.87
				C83.34,22.49,84.08,23.75,84.66,25.09z"/>
		</g>
		<g>
			<path class="st0" d="M78.8,17.73c0.18,0.13,0.36,0.27,0.53,0.41C79.16,18,78.98,17.87,78.8,17.73z"/>
		</g>
		<g>
			<path class="st0" d="M67.52,19.6c-3.44,0-6.67,1.31-9.11,3.68c-0.46,0.44-0.87,0.92-1.25,1.41c0.38-0.5,0.8-0.97,1.25-1.41
				C60.85,20.9,64.08,19.6,67.52,19.6c3.44,0,6.67,1.31,9.11,3.68c0.95,0.93,1.74,1.98,2.34,3.12h0c-0.6-1.13-1.39-2.19-2.34-3.12
				C74.2,20.9,70.96,19.6,67.52,19.6z"/>
		</g>
		<g>
			<path class="st0" d="M69.65,14.14c0.22,0.02,0.43,0.05,0.65,0.08C70.09,14.19,69.87,14.17,69.65,14.14z"/>
		</g>
		<g>
			<path class="st0" d="M52.6,21.33c-1.7,2.21-2.83,4.75-3.35,7.45c0,0,0,0,0,0c0.24-1.26,0.62-2.49,1.14-3.68
				C50.97,23.75,51.71,22.49,52.6,21.33z"/>
		</g>
		<g>
			<path class="st0" d="M64.61,14.24c-2.98,0.45-5.78,1.6-8.2,3.36c1.19-0.87,2.49-1.59,3.87-2.16
				C61.68,14.87,63.13,14.47,64.61,14.24z"/>
		</g>
		<g>
			<path class="st0" d="M78.63,17.61c-2.42-1.76-5.22-2.91-8.2-3.36c1.49,0.23,2.94,0.63,4.33,1.2
				C76.14,16.02,77.44,16.74,78.63,17.61z"/>
		</g>
		<g>
			<path class="st0" d="M56.36,25.9C56.36,25.9,56.36,25.9,56.36,25.9c0.14-0.24,0.29-0.48,0.45-0.71
				C56.64,25.42,56.5,25.66,56.36,25.9z"/>
		</g>
		<g>
			<path class="st0" d="M80.72,19.37c-0.01-0.01-0.01-0.01-0.02-0.02c-0.01-0.01-0.02-0.02-0.02-0.02
				c-0.01-0.01-0.02-0.02-0.03-0.03c0.01,0.01,0.02,0.02,0.03,0.03c-0.01-0.01-0.03-0.03-0.04-0.04c0.01,0.01,0.03,0.03,0.04,0.04
				C80.69,19.35,80.7,19.36,80.72,19.37z"/>
		</g>
		<g>
			<path class="st0" d="M81.9,20.64c0.14,0.17,0.28,0.35,0.42,0.52C82.18,20.99,82.04,20.81,81.9,20.64z"/>
		</g>
		<g>
			<path class="st0" d="M67.67,14.03c0.26,0,0.52,0.01,0.78,0.02C68.19,14.03,67.93,14.03,67.67,14.03z"/>
		</g>
		<g>
			<path class="st0" d="M66.59,14.04c0.26-0.01,0.52-0.02,0.78-0.02C67.11,14.03,66.85,14.03,66.59,14.04z"/>
		</g>
		<g>
			<path class="st0" d="M88.67,28.59L88.67,28.59c-0.04-0.2-0.07-0.4-0.11-0.6C88.6,28.19,88.64,28.39,88.67,28.59z"/>
		</g>
		<g>
			<path class="st0" d="M91.16,26.57c0-0.01,0-0.01-0.01-0.02c0,0.01,0,0.02,0.01,0.03c0,0,0,0,0,0
				C91.17,26.57,91.17,26.57,91.16,26.57z"/>
		</g>
		<g>
			<path class="st0" d="M68.81,14.07c0.19,0.01,0.38,0.02,0.57,0.04C69.19,14.09,69,14.08,68.81,14.07z"/>
		</g>
		<g>
			<path class="st1" d="M87.3,24.01c-0.95-2.18-2.25-4.16-3.88-5.91c-0.14-0.15-0.28-0.29-0.42-0.43c0.86,0.88,1.65,1.81,2.34,2.81
				c0.19,0.28,0.38,0.56,0.56,0.85c0.36,0.57,0.68,1.16,0.98,1.77C87.02,23.39,87.16,23.7,87.3,24.01c0.14,0.32,0.27,0.65,0.39,0.97
				c0.37,0.98,0.66,1.98,0.87,3c0.04,0.2,0.07,0.4,0.11,0.6c0,0,0,0,0,0C88.4,27.02,87.94,25.49,87.3,24.01z"/>
		</g>
		<g>
			<path class="st1" d="M80.68,19.33c0.01,0.01,0.02,0.02,0.02,0.02C80.69,19.35,80.68,19.34,80.68,19.33
				c-0.01-0.01-0.02-0.02-0.03-0.03C80.66,19.31,80.67,19.32,80.68,19.33z"/>
		</g>
		<g>
			<path class="st1" d="M47.75,24.01c0.41-0.93,0.88-1.83,1.41-2.69c0.53-0.86,1.13-1.68,1.79-2.46c0.35-0.41,0.72-0.81,1.1-1.2
				c-0.02,0.02-0.04,0.04-0.06,0.06c-0.41,0.42-0.8,0.85-1.17,1.29c-0.39,0.47-0.76,0.96-1.11,1.46c-0.48,0.69-0.9,1.41-1.29,2.15
				C48.18,23.07,47.95,23.53,47.75,24.01C47.75,24.01,47.75,24.01,47.75,24.01c-0.04,0.09-0.07,0.18-0.11,0.26
				C47.68,24.18,47.71,24.09,47.75,24.01z"/>
		</g>
		<g>
			<path class="st1" d="M44.73,23.85c0-0.01,0.01-0.02,0.01-0.04C44.74,23.83,44.74,23.84,44.73,23.85
				c-0.01,0.01-0.01,0.02-0.01,0.04C44.72,23.88,44.73,23.87,44.73,23.85z"/>
		</g>
		<g>
			<path class="st1" d="M44.37,24.87c0-0.01,0.01-0.02,0.01-0.03C44.38,24.85,44.38,24.86,44.37,24.87c0,0.01-0.01,0.02-0.01,0.03
				C44.37,24.89,44.37,24.88,44.37,24.87z"/>
		</g>
		<g>
			<path class="st1" d="M44.63,24.13c0-0.01,0.01-0.01,0.01-0.02C44.63,24.12,44.63,24.13,44.63,24.13
				c-0.02,0.04-0.03,0.08-0.04,0.13C44.6,24.22,44.61,24.18,44.63,24.13z"/>
		</g>
		<g>
			<path class="st1" d="M45.11,22.92c0.31-0.71,0.65-1.39,1.02-2.06c0.19-0.33,0.38-0.66,0.58-0.99c0.4-0.65,0.84-1.28,1.31-1.89
				c0.7-0.91,1.47-1.78,2.31-2.6c-0.56,0.54-1.09,1.11-1.58,1.7c-0.5,0.59-0.96,1.2-1.4,1.83C46.47,20.17,45.72,21.51,45.11,22.92
				c-0.01,0.02-0.02,0.05-0.03,0.07C45.09,22.97,45.1,22.94,45.11,22.92z"/>
		</g>
		<g>
			<path class="st1" d="M44.21,25.39C44.21,25.39,44.21,25.39,44.21,25.39C44.21,25.39,44.21,25.39,44.21,25.39
				c0-0.01,0-0.02,0.01-0.02C44.21,25.37,44.21,25.38,44.21,25.39z"/>
		</g>
		<g>
			<path class="st1" d="M90.72,25c0,0.01,0,0.01,0.01,0.02C90.72,25.01,90.72,25.01,90.72,25c0-0.01,0-0.01-0.01-0.02
				C90.71,24.99,90.72,25,90.72,25z"/>
		</g>
		<g>
			<path class="st1" d="M90.86,25.45c0,0.01,0.01,0.02,0.01,0.04C90.86,25.47,90.86,25.46,90.86,25.45c0-0.01-0.01-0.02-0.01-0.04
				C90.85,25.42,90.85,25.43,90.86,25.45z"/>
		</g>
		<g>
			<polygon class="st1" points="87.2,18.22 87.21,18.23 87.2,18.22 87.19,18.21 			"/>
		</g>
		<g>
			<polygon class="st1" points="86.26,17.04 86.26,17.04 86.26,17.03 86.26,17.04 			"/>
		</g>
		<g>
			<polygon class="st1" points="86.49,17.31 86.5,17.32 86.49,17.31 86.48,17.3 			"/>
		</g>
		<g>
			<path class="st1" d="M91.16,26.55c0,0.01,0,0.01,0.01,0.02C91.16,26.56,91.16,26.55,91.16,26.55c0-0.01,0-0.01,0-0.02
				C91.16,26.53,91.16,26.54,91.16,26.55z"/>
		</g>
		<g>
			<path class="st1" d="M91.03,26.06c0,0.01,0,0.01,0.01,0.02C91.04,26.07,91.03,26.06,91.03,26.06c0-0.01,0-0.01-0.01-0.02
				C91.03,26.04,91.03,26.05,91.03,26.06z"/>
		</g>
		<g>
			<polygon class="st1" points="86.95,17.88 86.95,17.89 86.95,17.88 86.95,17.88 			"/>
		</g>
		<g>
			<path class="st1" d="M90.48,24.32c0.01,0.02,0.02,0.04,0.02,0.07C90.5,24.36,90.49,24.34,90.48,24.32
				c-0.01-0.02-0.02-0.04-0.02-0.07C90.47,24.27,90.47,24.29,90.48,24.32z"/>
		</g>
		<g>
			<path class="st1" d="M88.77,20.61c0.01,0.01,0.01,0.02,0.02,0.03C88.78,20.63,88.78,20.62,88.77,20.61
				c0-0.01-0.01-0.02-0.02-0.03C88.76,20.59,88.77,20.6,88.77,20.61z"/>
		</g>
		<g>
			<path class="st1" d="M89.48,21.94c0,0,0.01,0.01,0.01,0.01C89.48,21.95,89.48,21.94,89.48,21.94c0,0,0-0.01-0.01-0.01
				C89.47,21.93,89.48,21.93,89.48,21.94z"/>
		</g>
		<g>
			<path class="st1" d="M90.35,23.96c0,0.01,0,0.01,0.01,0.02C90.36,23.97,90.36,23.96,90.35,23.96c0,0,0-0.01-0.01-0.02
				C90.35,23.95,90.35,23.95,90.35,23.96z"/>
		</g>
		<g>
			<path class="st1" d="M89.32,21.62c0.01,0.02,0.02,0.04,0.03,0.06C89.34,21.66,89.33,21.64,89.32,21.62
				c-0.01-0.02-0.02-0.04-0.03-0.06C89.3,21.59,89.31,21.6,89.32,21.62z"/>
		</g>
		<g>
			<path class="st1" d="M89.93,22.92c0.03,0.07,0.05,0.13,0.08,0.2C89.99,23.05,89.96,22.99,89.93,22.92
				c-0.03-0.07-0.06-0.13-0.09-0.19C89.87,22.79,89.91,22.86,89.93,22.92z"/>
		</g>
		<g>
			<path class="st1" d="M88.98,20.98c0,0,0.01,0.01,0.01,0.01C88.98,20.98,88.98,20.98,88.98,20.98c0,0,0-0.01-0.01-0.01
				C88.97,20.97,88.98,20.97,88.98,20.98z"/>
		</g>
		<g>
			<polygon class="st1" points="87.59,18.76 87.6,18.77 87.59,18.76 87.59,18.75 			"/>
		</g>
		<g>
			<path class="st1" d="M88.43,20.04c0,0,0.01,0.01,0.01,0.01C88.44,20.05,88.44,20.04,88.43,20.04c0,0,0-0.01-0.01-0.01
				C88.43,20.03,88.43,20.03,88.43,20.04z"/>
		</g>
		<g>
			<path class="st1" d="M87.84,19.12c0,0,0.01,0.01,0.01,0.01C87.85,19.13,87.85,19.12,87.84,19.12c0,0,0-0.01-0.01-0.01
				C87.84,19.11,87.84,19.11,87.84,19.12z"/>
		</g>
		<g>
			<path class="st1" d="M88.2,19.67c0,0,0.01,0.01,0.01,0.01C88.21,19.68,88.2,19.67,88.2,19.67c0,0-0.01-0.01-0.01-0.01
				C88.2,19.66,88.2,19.66,88.2,19.67z"/>
		</g>
		<g>
			<path class="st1" d="M74.28,3.69c0.15,0.03,0.29,0.07,0.44,0.1C74.57,3.76,74.43,3.72,74.28,3.69z"/>
		</g>
		<g>
			<path class="st1" d="M90.13,13.01c-0.62-0.7-1.28-1.37-1.97-2.02C88.85,11.63,89.5,12.3,90.13,13.01z"/>
		</g>
		<g>
			<path class="st1" d="M84.24,7.92c0.18,0.12,0.35,0.23,0.52,0.35C84.59,8.15,84.42,8.04,84.24,7.92z"/>
		</g>
		<g>
			<path class="st1" d="M87.63,10.51c0.17,0.15,0.34,0.31,0.51,0.47C87.98,10.82,87.8,10.67,87.63,10.51z"/>
		</g>
		<g>
			<path class="st1" d="M83.03,7.16c0.17,0.1,0.34,0.21,0.51,0.31C83.37,7.37,83.2,7.26,83.03,7.16z"/>
		</g>
		<g>
			<path class="st1" d="M81.78,6.46c0.17,0.09,0.35,0.19,0.52,0.28C82.12,6.65,81.95,6.55,81.78,6.46z"/>
		</g>
		<g>
			<path class="st1" d="M87.09,10.05c0.17,0.14,0.33,0.29,0.5,0.43C87.43,10.34,87.26,10.19,87.09,10.05z"/>
		</g>
		<g>
			<path class="st1" d="M82.41,6.8c0.16,0.09,0.33,0.19,0.49,0.28C82.73,6.99,82.57,6.9,82.41,6.8z"/>
		</g>
		<g>
			<path class="st1" d="M84.84,8.32c0.17,0.12,0.33,0.24,0.5,0.36C85.17,8.56,85,8.44,84.84,8.32z"/>
		</g>
		<g>
			<path class="st1" d="M81.14,6.13c0.17,0.08,0.33,0.17,0.5,0.26C81.47,6.3,81.31,6.21,81.14,6.13z"/>
		</g>
		<g>
			<path class="st1" d="M83.64,7.53c0.17,0.11,0.34,0.22,0.51,0.32C83.98,7.75,83.81,7.64,83.64,7.53z"/>
		</g>
		<g>
			<path class="st1" d="M86.55,9.6c0.17,0.13,0.33,0.27,0.5,0.41C86.88,9.87,86.71,9.73,86.55,9.6z"/>
		</g>
		<g>
			<path class="st1" d="M85.99,9.16c0.17,0.13,0.34,0.27,0.51,0.4C86.33,9.42,86.16,9.29,85.99,9.16z"/>
		</g>
		<g>
			<path class="st1" d="M79.83,5.52c0.14,0.06,0.29,0.13,0.43,0.2C80.12,5.65,79.98,5.58,79.83,5.52z"/>
		</g>
		<g>
			<path class="st1" d="M80.49,5.82c0.14,0.07,0.29,0.14,0.43,0.21C80.78,5.96,80.63,5.88,80.49,5.82z"/>
		</g>
		<g>
			<path class="st1" d="M77.12,4.47c0.13,0.04,0.27,0.09,0.4,0.14C77.38,4.57,77.25,4.52,77.12,4.47z"/>
		</g>
		<g>
			<path class="st1" d="M76.42,4.25c0.13,0.04,0.26,0.08,0.39,0.12C76.68,4.33,76.55,4.29,76.42,4.25z"/>
		</g>
		<g>
			<path class="st1" d="M75,3.86c0.16,0.04,0.31,0.08,0.47,0.12C75.31,3.94,75.16,3.9,75,3.86z"/>
		</g>
		<g>
			<path class="st1" d="M73.55,3.53c0.13,0.03,0.25,0.05,0.38,0.08C73.8,3.59,73.68,3.56,73.55,3.53z"/>
		</g>
		<g>
			<path class="st1" d="M75.71,4.05c0.15,0.04,0.3,0.09,0.45,0.13C76.01,4.13,75.86,4.09,75.71,4.05z"/>
		</g>
		<g>
			<path class="st1" d="M77.81,4.71c0.16,0.06,0.32,0.12,0.47,0.18C78.12,4.83,77.97,4.77,77.81,4.71z"/>
		</g>
		<g>
			<path class="st1" d="M79.17,5.23c0.15,0.06,0.29,0.12,0.44,0.19C79.46,5.36,79.31,5.29,79.17,5.23z"/>
		</g>
		<g>
			<path class="st1" d="M96.76,25.89c-1.08-4.85-3.4-9.26-6.62-12.88C93.36,16.64,95.67,21.04,96.76,25.89
				C96.76,25.89,96.76,25.89,96.76,25.89z"/>
		</g>
		<g>
			<path class="st1" d="M78.49,4.96c0.15,0.06,0.3,0.12,0.44,0.18C78.79,5.08,78.64,5.02,78.49,4.96z"/>
		</g>
		<g>
			<path class="st1" d="M85.42,8.73c0.18,0.13,0.35,0.26,0.53,0.4C85.77,8.99,85.59,8.86,85.42,8.73z"/>
		</g>
		<g>
			<path class="st1" d="M53.4,6.39c0.17-0.09,0.33-0.17,0.5-0.26C53.74,6.22,53.57,6.3,53.4,6.39z"/>
		</g>
		<g>
			<path class="st1" d="M54.1,6.04c0.15-0.08,0.31-0.15,0.46-0.22C54.4,5.89,54.25,5.96,54.1,6.04z"/>
		</g>
		<g>
			<path class="st1" d="M52.73,6.75c0.18-0.1,0.36-0.2,0.54-0.29C53.09,6.56,52.91,6.65,52.73,6.75z"/>
		</g>
		<g>
			<path class="st1" d="M54.77,5.72c0.15-0.07,0.3-0.14,0.45-0.2C55.06,5.58,54.92,5.65,54.77,5.72z"/>
		</g>
		<g>
			<path class="st1" d="M57.5,4.62c0.14-0.05,0.29-0.1,0.43-0.15C57.78,4.52,57.64,4.57,57.5,4.62z"/>
		</g>
		<g>
			<path class="st1" d="M52.13,7.1c0.17-0.1,0.34-0.2,0.51-0.29C52.46,6.9,52.29,7,52.13,7.1z"/>
		</g>
		<g>
			<path class="st1" d="M58.21,4.38c0.14-0.04,0.28-0.09,0.42-0.13C58.49,4.29,58.35,4.34,58.21,4.38z"/>
		</g>
		<g>
			<path class="st1" d="M56.73,4.9c0.17-0.06,0.34-0.13,0.5-0.19C57.07,4.77,56.9,4.83,56.73,4.9z"/>
		</g>
		<g>
			<path class="st1" d="M56.09,5.15c0.16-0.06,0.31-0.13,0.47-0.19C56.4,5.02,56.24,5.09,56.09,5.15z"/>
		</g>
		<g>
			<path class="st1" d="M55.43,5.42c0.15-0.06,0.3-0.13,0.45-0.19C55.73,5.29,55.58,5.36,55.43,5.42z"/>
		</g>
		<g>
			<path class="st1" d="M51.47,7.49c0.18-0.11,0.36-0.22,0.54-0.33C51.83,7.27,51.65,7.38,51.47,7.49z"/>
		</g>
		<g>
			<path class="st1" d="M47.45,10.48c0.16-0.15,0.33-0.29,0.5-0.43C47.78,10.19,47.62,10.34,47.45,10.48z"/>
		</g>
		<g>
			<path class="st1" d="M46.9,10.98c0.17-0.16,0.34-0.31,0.51-0.47C47.24,10.67,47.07,10.82,46.9,10.98z"/>
		</g>
		<g>
			<path class="st1" d="M48.53,9.58c0.18-0.14,0.35-0.28,0.53-0.42C48.88,9.3,48.7,9.43,48.53,9.58z"/>
		</g>
		<g>
			<path class="st1" d="M48,10.01c0.16-0.14,0.33-0.28,0.5-0.41C48.33,9.73,48.17,9.87,48,10.01z"/>
		</g>
		<g>
			<path class="st1" d="M46.89,10.99c-4.26,3.96-7.32,9.13-8.61,14.95c0,0,0,0,0,0C39.57,20.12,42.63,14.95,46.89,10.99z"/>
		</g>
		<g>
			<path class="st1" d="M50.26,8.29c0.18-0.12,0.36-0.25,0.55-0.37C50.62,8.04,50.44,8.16,50.26,8.29z"/>
		</g>
		<g>
			<path class="st1" d="M50.89,7.86c0.17-0.11,0.34-0.22,0.51-0.33C51.23,7.64,51.06,7.75,50.89,7.86z"/>
		</g>
		<g>
			<path class="st1" d="M49.69,8.69c0.17-0.13,0.35-0.25,0.52-0.37C50.03,8.44,49.86,8.57,49.69,8.69z"/>
		</g>
		<g>
			<path class="st1" d="M49.1,9.13c0.18-0.13,0.35-0.27,0.53-0.4C49.45,8.86,49.27,9,49.1,9.13z"/>
		</g>
		<g>
			<path class="st1" d="M67.52,2.94c0,0-0.01,0-0.01,0C67.51,2.94,67.52,2.94,67.52,2.94L67.52,2.94z"/>
		</g>
		<g>
			<path class="st1" d="M69.82,3.03c0.19,0.01,0.39,0.03,0.58,0.05C70.21,3.06,70.02,3.04,69.82,3.03z"/>
		</g>
		<g>
			<path class="st1" d="M69.06,2.98C69.24,2.99,69.42,3,69.6,3.01C69.42,3,69.24,2.99,69.06,2.98z"/>
		</g>
		<g>
			<path class="st1" d="M65.38,3.02c0.2-0.01,0.4-0.03,0.6-0.04C65.78,2.99,65.58,3,65.38,3.02z"/>
		</g>
		<g>
			<path class="st1" d="M70.58,3.09c0.15,0.01,0.3,0.03,0.45,0.05C70.88,3.12,70.73,3.11,70.58,3.09z"/>
		</g>
		<g>
			<path class="st1" d="M72.82,3.4c0.13,0.02,0.27,0.05,0.4,0.07C73.08,3.45,72.95,3.42,72.82,3.4z"/>
		</g>
		<g>
			<path class="st1" d="M64.6,3.08c0.21-0.02,0.41-0.04,0.62-0.05C65.01,3.04,64.81,3.06,64.6,3.08z"/>
		</g>
		<g>
			<path class="st1" d="M72.08,3.28c0.12,0.02,0.24,0.04,0.36,0.06C72.32,3.32,72.2,3.3,72.08,3.28z"/>
		</g>
		<g>
			<path class="st1" d="M71.33,3.18c0.11,0.01,0.22,0.03,0.33,0.04C71.55,3.21,71.44,3.19,71.33,3.18z"/>
		</g>
		<g>
			<path class="st1" d="M62.57,3.34c0.13-0.02,0.26-0.04,0.39-0.06C62.84,3.3,62.71,3.32,62.57,3.34z"/>
		</g>
		<g>
			<path class="st1" d="M61.09,3.62c0.13-0.03,0.27-0.06,0.4-0.09C61.36,3.56,61.23,3.59,61.09,3.62z"/>
		</g>
		<g>
			<path class="st1" d="M60.29,3.8c0.16-0.04,0.32-0.08,0.48-0.11C60.61,3.72,60.45,3.76,60.29,3.8z"/>
		</g>
		<g>
			<path class="st1" d="M61.8,3.48c0.14-0.03,0.29-0.06,0.43-0.08C62.08,3.42,61.94,3.45,61.8,3.48z"/>
		</g>
		<g>
			<path class="st1" d="M59.55,3.99c0.17-0.04,0.33-0.09,0.5-0.13C59.88,3.9,59.71,3.95,59.55,3.99z"/>
		</g>
		<g>
			<path class="st1" d="M63.98,3.15c0.16-0.02,0.32-0.04,0.49-0.05C64.3,3.11,64.14,3.13,63.98,3.15z"/>
		</g>
		<g>
			<path class="st1" d="M58.86,4.19c0.16-0.05,0.32-0.09,0.47-0.14C59.18,4.09,59.02,4.14,58.86,4.19z"/>
		</g>
		<g>
			<path class="st1" d="M63.34,3.23c0.12-0.02,0.25-0.04,0.37-0.05C63.59,3.19,63.47,3.21,63.34,3.23z"/>
		</g>
		<g>
			<path class="st2" d="M87.21,18.23c0.13,0.17,0.26,0.35,0.38,0.52C87.46,18.57,87.34,18.4,87.21,18.23z"/>
		</g>
		<g>
			<path class="st2" d="M86.5,17.32c0.15,0.18,0.3,0.37,0.45,0.56C86.8,17.69,86.65,17.5,86.5,17.32z"/>
		</g>
		<g>
			<polygon class="st2" points="91.17,26.58 91.16,26.57 91.17,26.58 			"/>
		</g>
		<g>
			<path class="st2" d="M89.49,21.95c0.12,0.26,0.24,0.51,0.36,0.78C89.73,22.47,89.61,22.21,89.49,21.95z"/>
		</g>
		<g>
			<path class="st2" d="M87.85,19.13c0.12,0.17,0.23,0.35,0.34,0.52C88.08,19.48,87.97,19.3,87.85,19.13z"/>
		</g>
		<g>
			<path class="st2" d="M88.44,20.05c0.11,0.18,0.21,0.36,0.32,0.54C88.65,20.41,88.55,20.23,88.44,20.05z"/>
		</g>
		<g>
			<path class="st2" d="M90.51,24.38c0.07,0.2,0.14,0.4,0.21,0.6C90.65,24.78,90.58,24.58,90.51,24.38z"/>
		</g>
		<g>
			<path class="st2" d="M44.75,23.82c0.11-0.28,0.22-0.55,0.33-0.82C44.96,23.27,44.85,23.54,44.75,23.82z"/>
		</g>
		<g>
			<path class="st2" d="M44.38,24.84c0.06-0.19,0.13-0.39,0.2-0.58C44.51,24.45,44.45,24.65,44.38,24.84z"/>
		</g>
		<g>
			<path class="st2" d="M88.99,20.99c0.1,0.19,0.2,0.38,0.3,0.58C89.19,21.37,89.09,21.18,88.99,20.99z"/>
		</g>
		<g>
			<path class="st2" d="M90.02,23.12c0.12,0.27,0.23,0.54,0.33,0.82C90.24,23.66,90.13,23.39,90.02,23.12z"/>
		</g>
		<g>
			<path class="st2" d="M90.87,25.48c0.06,0.18,0.11,0.37,0.16,0.56C90.98,25.85,90.92,25.67,90.87,25.48z"/>
		</g>
		<g>
			<path class="st2" d="M44.58,24.26c0.02-0.04,0.03-0.08,0.04-0.13c-0.09,0.24-0.17,0.49-0.25,0.73c0-0.01,0.01-0.02,0.01-0.03
				C44.45,24.65,44.51,24.45,44.58,24.26z"/>
		</g>
		<g>
			<path class="st2" d="M47.34,18.91c0.44-0.63,0.9-1.24,1.4-1.83C48.24,17.67,47.77,18.28,47.34,18.91z"/>
		</g>
		<g>
			<path class="st2" d="M45.08,22.99c0.01-0.02,0.02-0.05,0.03-0.07c-0.13,0.31-0.26,0.62-0.38,0.93c0-0.01,0.01-0.02,0.01-0.04
				C44.85,23.54,44.96,23.27,45.08,22.99z"/>
		</g>
		<g>
			<path class="st2" d="M86.95,17.88C86.95,17.88,86.95,17.88,86.95,17.88c-0.15-0.19-0.3-0.38-0.46-0.57c0,0,0,0.01,0.01,0.01
				C86.65,17.5,86.8,17.69,86.95,17.88z"/>
		</g>
		<g>
			<path class="st2" d="M91.16,26.57c0,0,0,0.01,0,0.01c0,0,0,0,0,0c0-0.01-0.01-0.02-0.01-0.03
				C91.16,26.55,91.16,26.56,91.16,26.57z"/>
		</g>
		<g>
			<path class="st2" d="M87.59,18.75C87.59,18.75,87.59,18.76,87.59,18.75c-0.12-0.17-0.25-0.35-0.39-0.53c0,0,0,0.01,0.01,0.01
				C87.34,18.4,87.46,18.57,87.59,18.75z"/>
		</g>
		<g>
			<path class="st2" d="M90.71,24.98c0,0.01,0,0.01,0.01,0.02c-0.07-0.23-0.16-0.46-0.24-0.69c0.01,0.02,0.01,0.04,0.02,0.07
				C90.58,24.58,90.65,24.78,90.71,24.98z"/>
		</g>
		<g>
			<path class="st2" d="M91.03,26.04c0,0.01,0,0.01,0.01,0.02c-0.06-0.2-0.12-0.41-0.18-0.61c0,0.01,0.01,0.02,0.01,0.04
				C90.92,25.67,90.98,25.85,91.03,26.04z"/>
		</g>
		<g>
			<path class="st2" d="M89.29,21.57c0.01,0.02,0.02,0.04,0.03,0.06c-0.11-0.22-0.22-0.43-0.34-0.65c0,0,0,0.01,0.01,0.01
				C89.09,21.18,89.19,21.37,89.29,21.57z"/>
		</g>
		<g>
			<path class="st2" d="M89.85,22.73c0.03,0.07,0.06,0.13,0.09,0.2c-0.14-0.33-0.3-0.66-0.46-0.98c0,0,0,0.01,0.01,0.01
				C89.61,22.21,89.73,22.47,89.85,22.73z"/>
		</g>
		<g>
			<path class="st2" d="M85.54,16.22c0.25,0.27,0.49,0.54,0.72,0.81c0,0,0,0,0,0C86.03,16.76,85.79,16.49,85.54,16.22z"/>
		</g>
		<g>
			<path class="st2" d="M88.76,20.59c0.01,0.01,0.01,0.02,0.02,0.03c-0.11-0.19-0.22-0.39-0.34-0.58c0,0,0,0.01,0.01,0.01
				C88.55,20.23,88.65,20.41,88.76,20.59z"/>
		</g>
		<g>
			<path class="st2" d="M88.19,19.65c0,0,0.01,0.01,0.01,0.01c-0.12-0.18-0.24-0.37-0.36-0.55c0,0,0,0.01,0.01,0.01
				C87.97,19.3,88.08,19.48,88.19,19.65z"/>
		</g>
		<g>
			<path class="st2" d="M90.35,23.94c0,0.01,0,0.01,0.01,0.02c-0.13-0.35-0.27-0.69-0.42-1.03c0.03,0.07,0.05,0.13,0.08,0.2
				C90.13,23.39,90.24,23.66,90.35,23.94z"/>
		</g>
		<g>
			<path class="st2" d="M41.13,25.78L41.13,25.78c0.18-0.7,0.38-1.4,0.62-2.08C41.51,24.38,41.31,25.07,41.13,25.78z"/>
		</g>
		<g>
			<path class="st2" d="M44.54,18c0.28-0.42,0.56-0.84,0.86-1.25C45.1,17.16,44.81,17.58,44.54,18z"/>
		</g>
		<g>
			<path class="st2" d="M42.47,21.84c0.45-1.04,0.97-2.04,1.55-3C43.44,19.8,42.92,20.8,42.47,21.84z"/>
		</g>
		<g>
			<path class="st2" d="M73.59,6.32c0.66,0.15,1.31,0.32,1.96,0.51C74.91,6.64,74.25,6.46,73.59,6.32z"/>
		</g>
		<g>
			<path class="st2" d="M75.55,6.83c0.43,0.13,0.86,0.27,1.29,0.42C76.41,7.1,75.98,6.96,75.55,6.83z"/>
		</g>
		<g>
			<path class="st2" d="M50.25,11.69c0.67-0.54,1.37-1.05,2.09-1.52C51.62,10.64,50.92,11.15,50.25,11.69z"/>
		</g>
		<g>
			<path class="st2" d="M82.7,10.17c0.72,0.47,1.42,0.98,2.09,1.52C84.12,11.15,83.43,10.64,82.7,10.17z"/>
		</g>
		<g>
			<path class="st2" d="M70.25,5.79c0.9,0.09,1.8,0.22,2.68,0.39C72.05,6.01,71.16,5.87,70.25,5.79z"/>
		</g>
		<g>
			<path class="st2" d="M79.3,8.27c0.79,0.37,1.56,0.77,2.3,1.21C80.86,9.04,80.09,8.64,79.3,8.27z"/>
		</g>
		<g>
			<path class="st2" d="M57.57,7.49c2.53-0.97,5.18-1.56,7.9-1.76C62.75,5.93,60.11,6.52,57.57,7.49z"/>
		</g>
		<g>
			<path class="st2" d="M53.44,9.48c0.74-0.44,1.51-0.84,2.3-1.21C54.95,8.64,54.19,9.04,53.44,9.48z"/>
		</g>
		<g>
			<path class="st2" d="M65.47,5.73c0.45-0.03,0.91-0.05,1.37-0.07C66.38,5.68,65.92,5.7,65.47,5.73z"/>
		</g>
		<g>
			<path class="st3" d="M44.21,25.36c0.05-0.16,0.1-0.31,0.15-0.47C44.31,25.05,44.26,25.21,44.21,25.36z"/>
		</g>
		<g>
			<path class="st3" d="M91.04,26.08c0.04,0.15,0.08,0.3,0.12,0.45C91.12,26.38,91.08,26.23,91.04,26.08z"/>
		</g>
		<g>
			<path class="st3" d="M90.72,25.02c0.04,0.13,0.08,0.26,0.12,0.39C90.81,25.28,90.77,25.15,90.72,25.02z"/>
		</g>
		<g>
			<path class="st3" d="M88.79,20.64c0.06,0.11,0.12,0.21,0.18,0.32C88.91,20.85,88.85,20.75,88.79,20.64z"/>
		</g>
		<g>
			<path class="st3" d="M90.36,23.97c0.03,0.09,0.07,0.19,0.1,0.28C90.43,24.16,90.39,24.06,90.36,23.97z"/>
		</g>
		<g>
			<path class="st3" d="M87.6,18.77c0.08,0.11,0.16,0.23,0.23,0.34C87.76,18.99,87.68,18.88,87.6,18.77z"/>
		</g>
		<g>
			<path class="st3" d="M89.35,21.68c0.04,0.08,0.08,0.16,0.12,0.24C89.43,21.84,89.39,21.76,89.35,21.68z"/>
		</g>
		<g>
			<path class="st3" d="M44.63,24.11c0.03-0.07,0.06-0.15,0.08-0.22C44.69,23.96,44.66,24.04,44.63,24.11z"/>
		</g>
		<g>
			<path class="st3" d="M88.21,19.68c0.07,0.11,0.14,0.23,0.22,0.34C88.36,19.91,88.28,19.79,88.21,19.68z"/>
		</g>
		<g>
			<path class="st3" d="M86.95,17.89c0.08,0.11,0.16,0.21,0.24,0.32C87.11,18.1,87.03,17.99,86.95,17.89z"/>
		</g>
		<g>
			<path class="st3" d="M86.26,17.04c0.07,0.09,0.14,0.18,0.22,0.26C86.41,17.21,86.34,17.12,86.26,17.04z"/>
		</g>
		<g>
			<path class="st3" d="M83.42,18.09c1.63,1.75,2.93,3.73,3.88,5.91c0.64,1.48,1.1,3.01,1.37,4.58c0,0,0,0,0,0
				c-0.28-1.57-0.73-3.1-1.37-4.58C86.35,21.83,85.05,19.84,83.42,18.09z"/>
		</g>
		<g>
			<path class="st3" d="M82.7,17.36c0.1,0.1,0.2,0.2,0.3,0.3c0.14,0.14,0.29,0.29,0.42,0.43C83.19,17.84,82.95,17.6,82.7,17.36z"/>
		</g>
		<g>
			<path class="st3" d="M49.71,20.47c0.35-0.5,0.72-0.99,1.11-1.46C50.43,19.48,50.06,19.97,49.71,20.47z"/>
		</g>
		<g>
			<path class="st3" d="M48.42,22.62c-0.24,0.46-0.47,0.92-0.67,1.39c0,0,0,0,0,0c0,0,0,0,0,0C47.95,23.53,48.18,23.07,48.42,22.62z
				"/>
		</g>
		<g>
			<path class="st3" d="M52.35,17.36c-0.12,0.12-0.24,0.24-0.36,0.36c0.02-0.02,0.04-0.04,0.06-0.06
				C52.15,17.56,52.25,17.46,52.35,17.36z"/>
		</g>
		<g>
			<path class="st3" d="M44.21,25.36c0,0.01,0,0.01-0.01,0.02c0.05-0.17,0.11-0.35,0.17-0.52c0,0.01-0.01,0.02-0.01,0.03
				C44.31,25.05,44.26,25.21,44.21,25.36z"/>
		</g>
		<g>
			<path class="st3" d="M44.63,24.11c0,0.01-0.01,0.01-0.01,0.02c0.03-0.09,0.07-0.19,0.11-0.28c0,0.01-0.01,0.02-0.01,0.04
				C44.69,23.96,44.66,24.04,44.63,24.11z"/>
		</g>
		<g>
			<path class="st3" d="M86.95,17.89C86.95,17.88,86.95,17.88,86.95,17.89c0.08,0.11,0.16,0.22,0.25,0.33c0,0,0-0.01-0.01-0.01
				C87.11,18.1,87.03,17.99,86.95,17.89z"/>
		</g>
		<g>
			<path class="st3" d="M90.36,23.97c0-0.01,0-0.01-0.01-0.02c0.05,0.12,0.09,0.24,0.13,0.36c-0.01-0.02-0.02-0.04-0.02-0.07
				C90.43,24.16,90.39,24.06,90.36,23.97z"/>
		</g>
		<g>
			<path class="st3" d="M91.04,26.08c0-0.01,0-0.01-0.01-0.02c0.04,0.16,0.09,0.33,0.13,0.49c0-0.01,0-0.01,0-0.02
				C91.12,26.38,91.08,26.23,91.04,26.08z"/>
		</g>
		<g>
			<path class="st3" d="M88.79,20.64c-0.01-0.01-0.01-0.02-0.02-0.03c0.07,0.12,0.14,0.24,0.21,0.36c0,0,0-0.01-0.01-0.01
				C88.91,20.85,88.85,20.75,88.79,20.64z"/>
		</g>
		<g>
			<path class="st3" d="M89.35,21.68c-0.01-0.02-0.02-0.04-0.03-0.06c0.05,0.1,0.11,0.21,0.16,0.31c0,0,0-0.01-0.01-0.01
				C89.43,21.84,89.39,21.76,89.35,21.68z"/>
		</g>
		<g>
			<path class="st3" d="M87.6,18.77C87.6,18.76,87.6,18.76,87.6,18.77c0.08,0.11,0.16,0.23,0.24,0.35c0,0,0-0.01-0.01-0.01
				C87.76,18.99,87.68,18.88,87.6,18.77z"/>
		</g>
		<g>
			<path class="st3" d="M86.26,17.04C86.26,17.04,86.26,17.04,86.26,17.04c0.08,0.09,0.15,0.18,0.22,0.27c0,0,0-0.01-0.01-0.01
				C86.41,17.21,86.34,17.12,86.26,17.04z"/>
		</g>
		<g>
			<path class="st3" d="M90.72,25.02c0-0.01,0-0.01-0.01-0.02c0.05,0.15,0.09,0.3,0.14,0.44c0-0.01-0.01-0.02-0.01-0.04
				C90.81,25.28,90.77,25.15,90.72,25.02z"/>
		</g>
		<g>
			<path class="st3" d="M88.21,19.68c0,0-0.01-0.01-0.01-0.01c0.08,0.12,0.16,0.25,0.23,0.37c0,0,0-0.01-0.01-0.01
				C88.36,19.91,88.28,19.79,88.21,19.68z"/>
		</g>
		<g>
			<path class="st3" d="M84.72,15.39c0.28,0.27,0.55,0.55,0.82,0.83C85.27,15.94,85,15.66,84.72,15.39z"/>
		</g>
		<g>
			<path class="st4" d="M85.89,21.32c0.36,0.57,0.68,1.16,0.98,1.77C86.57,22.48,86.24,21.89,85.89,21.32z"/>
		</g>
		<g>
			<path class="st4" d="M80.71,19.36c-0.01-0.01-0.02-0.02-0.03-0.03C80.68,19.34,80.69,19.35,80.71,19.36
				C80.7,19.36,80.7,19.36,80.71,19.36z"/>
		</g>
		<g>
			<path class="st4" d="M47.64,24.27c-0.24,0.57-0.45,1.15-0.64,1.73c0,0,0,0,0,0c0.21-0.67,0.46-1.34,0.74-2
				c0.41-0.93,0.88-1.83,1.41-2.69c-0.53,0.86-1.01,1.76-1.41,2.69C47.71,24.09,47.68,24.18,47.64,24.27z"/>
		</g>
		<g>
			<path class="st5" d="M64.61,14.24c0.04-0.01,0.08-0.02,0.13-0.02C64.7,14.23,64.66,14.24,64.61,14.24z"/>
		</g>
		<g>
			<path class="st5" d="M67.67,14.03c-0.05,0-0.1,0-0.15,0c-0.05,0-0.1,0-0.15,0c0.05,0,0.1,0,0.15,0
				C67.57,14.02,67.62,14.03,67.67,14.03z"/>
		</g>
		<g>
			<path class="st5" d="M56.25,17.74c0.06-0.04,0.11-0.09,0.17-0.13C56.36,17.65,56.3,17.69,56.25,17.74z"/>
		</g>
		<g>
			<path class="st5" d="M65.39,14.14c0.09-0.01,0.18-0.02,0.27-0.03C65.57,14.12,65.48,14.13,65.39,14.14z"/>
		</g>
		<g>
			<path class="st5" d="M66.24,14.07c0.12-0.01,0.23-0.02,0.35-0.03C66.47,14.05,66.36,14.06,66.24,14.07z"/>
		</g>
		<g>
			<path class="st5" d="M80.72,19.37c0.2,0.2,0.4,0.4,0.59,0.6C81.12,19.77,80.92,19.57,80.72,19.37z"/>
		</g>
		<g>
			<path class="st5" d="M52.6,21.33c0.04-0.06,0.09-0.11,0.14-0.17C52.69,21.21,52.64,21.27,52.6,21.33z"/>
		</g>
		<g>
			<path class="st5" d="M55.37,18.43c0.12-0.1,0.23-0.2,0.35-0.29C55.6,18.24,55.48,18.34,55.37,18.43z"/>
		</g>
		<g>
			<path class="st5" d="M78.63,17.61c0.06,0.04,0.11,0.09,0.17,0.13C78.74,17.69,78.69,17.65,78.63,17.61z"/>
		</g>
		<g>
			<path class="st5" d="M53.15,20.64c0.1-0.12,0.2-0.23,0.31-0.35C53.35,20.41,53.25,20.52,53.15,20.64z"/>
		</g>
		<g>
			<path class="st5" d="M70.3,14.22c0.04,0.01,0.08,0.01,0.13,0.02C70.39,14.24,70.35,14.23,70.3,14.22z"/>
		</g>
		<g>
			<path class="st5" d="M68.45,14.04c0.12,0.01,0.23,0.02,0.35,0.03C68.69,14.06,68.57,14.05,68.45,14.04z"/>
		</g>
		<g>
			<path class="st5" d="M79.33,18.14c0.12,0.09,0.23,0.19,0.34,0.29C79.56,18.33,79.45,18.23,79.33,18.14z"/>
		</g>
		<g>
			<path class="st5" d="M80.01,18.72c0.21,0.19,0.42,0.38,0.62,0.57C80.43,19.1,80.22,18.9,80.01,18.72z"/>
		</g>
		<g>
			<path class="st5" d="M69.38,14.11c0.09,0.01,0.18,0.02,0.27,0.03C69.56,14.13,69.47,14.12,69.38,14.11z"/>
		</g>
		<g>
			<path class="st5" d="M82.32,21.16c0.04,0.05,0.09,0.11,0.13,0.16C82.4,21.27,82.36,21.22,82.32,21.16z"/>
		</g>
		<g>
			<path class="st5" d="M53.74,19.98c0.2-0.22,0.41-0.43,0.63-0.64C54.15,19.54,53.94,19.76,53.74,19.98z"/>
		</g>
		<g>
			<path class="st5" d="M54.37,19.33c0.22-0.21,0.44-0.42,0.66-0.61C54.81,18.92,54.59,19.12,54.37,19.33z"/>
		</g>
		<g>
			<path class="st5" d="M81.6,20.31c0.1,0.11,0.2,0.22,0.29,0.33C81.8,20.53,81.7,20.42,81.6,20.31z"/>
		</g>
		<g>
			<path class="st6" d="M70.62,17.11c0.76,0.15,1.5,0.35,2.22,0.6C72.11,17.45,71.37,17.25,70.62,17.11z"/>
		</g>
		<g>
			<path class="st6" d="M74.25,18.27c1.61,0.74,3.1,1.76,4.4,3.03c1.35,1.31,2.42,2.82,3.19,4.46c0,0,0,0,0,0
				c-0.77-1.64-1.84-3.15-3.19-4.46C77.35,20.04,75.86,19.02,74.25,18.27z"/>
		</g>
		<g>
			<path class="st6" d="M53.02,26.17C53.02,26.17,53.02,26.17,53.02,26.17c0.28-0.65,0.61-1.29,0.99-1.9
				C53.63,24.89,53.3,25.52,53.02,26.17z"/>
		</g>
		<g>
			<path class="st6" d="M54.01,24.28c0.26-0.43,0.55-0.84,0.86-1.25C54.56,23.43,54.27,23.85,54.01,24.28z"/>
		</g>
		<g>
			<path class="st7" d="M75.55,29.14c0.02,0.03,0.04,0.06,0.05,0.09c0.3-0.47,0.63-0.87,0.98-1.23c-1.12-2.31-3.14-4.13-5.62-5.02
				c-1.07-0.38-2.23-0.59-3.44-0.59s-2.37,0.21-3.44,0.59c-1.53,0.55-2.89,1.45-3.97,2.61c-0.22,0.23-0.42,0.47-0.61,0.72
				c-0.16,0.21-0.31,0.42-0.45,0.64c0.77,0.52,1.46,1.22,2.03,2.09c0.02-0.01,0.04-0.02,0.05-0.02c1.18-2.27,3.6-3.84,6.39-3.84
				c1.12,0,2.18,0.25,3.12,0.7C72.67,26.15,74.35,27.26,75.55,29.14z"/>
		</g>
		<g>
			<path class="st7" d="M64.08,22.98c1.07-0.38,2.23-0.59,3.44-0.59s2.37,0.21,3.44,0.59c-1.07-0.38-2.23-0.59-3.44-0.59
				S65.16,22.6,64.08,22.98z"/>
		</g>
		<g>
			<path class="st7" d="M59.05,26.95c0.14-0.22,0.29-0.43,0.45-0.64C59.34,26.52,59.19,26.73,59.05,26.95L59.05,26.95z"/>
		</g>
		<g>
			<path class="st7" d="M70.96,22.98c2.48,0.89,4.5,2.71,5.62,5.02c0,0,0,0,0,0C75.47,25.69,73.44,23.87,70.96,22.98z"/>
		</g>
		<g>
			<path class="st7" d="M60.11,25.59c1.08-1.16,2.44-2.06,3.97-2.61C62.55,23.53,61.19,24.43,60.11,25.59z"/>
		</g>
		<g>
			<path class="st8" d="M67.52,19.6c-3.44,0-6.67,1.31-9.11,3.68c-0.46,0.44-0.87,0.92-1.25,1.41c-0.13,0.17-0.25,0.33-0.36,0.5
				c-0.16,0.23-0.3,0.47-0.45,0.71c0.99,0.15,1.89,0.51,2.7,1.05c0.14-0.22,0.29-0.43,0.45-0.64c0.19-0.25,0.4-0.49,0.61-0.72
				c1.08-1.16,2.44-2.06,3.97-2.61c1.07-0.38,2.23-0.59,3.44-0.59s2.37,0.21,3.44,0.59c2.48,0.89,4.5,2.71,5.62,5.02
				c0.73-0.75,1.55-1.27,2.38-1.61c-0.6-1.13-1.39-2.19-2.34-3.12C74.2,20.9,70.96,19.6,67.52,19.6z"/>
		</g>
		<g>
			<path class="st6" d="M74.25,18.27c-0.46-0.21-0.93-0.4-1.41-0.57c-0.72-0.25-1.46-0.45-2.22-0.6c-1.01-0.19-2.04-0.29-3.09-0.29
				c-4.2,0-8.16,1.6-11.13,4.49c-0.56,0.54-1.07,1.12-1.53,1.73c-0.31,0.4-0.59,0.82-0.86,1.25c-0.38,0.61-0.7,1.24-0.99,1.9
				c0.68-0.24,1.4-0.37,2.17-0.37c0.4,0,0.79,0.03,1.16,0.09c0.14-0.24,0.29-0.48,0.45-0.71c0.12-0.17,0.24-0.34,0.36-0.5
				c0.38-0.5,0.8-0.97,1.25-1.41c2.43-2.37,5.67-3.68,9.11-3.68s6.67,1.31,9.11,3.68c0.95,0.93,1.74,1.98,2.34,3.12
				c0.99-0.41,1.99-0.58,2.87-0.62c-0.77-1.64-1.84-3.15-3.19-4.46C77.35,20.04,75.86,19.02,74.25,18.27z"/>
		</g>
		<g>
			<path class="st5" d="M82.45,21.32c-0.04-0.05-0.09-0.11-0.13-0.16c-0.14-0.18-0.28-0.35-0.42-0.52c-0.1-0.11-0.2-0.22-0.29-0.33
				c-0.1-0.11-0.2-0.22-0.3-0.33c-0.19-0.2-0.39-0.4-0.59-0.6c-0.01-0.01-0.03-0.03-0.04-0.04c-0.01-0.01-0.03-0.03-0.04-0.04
				c-0.2-0.2-0.41-0.39-0.62-0.57c-0.11-0.1-0.23-0.19-0.34-0.29c-0.11-0.1-0.23-0.19-0.34-0.29c-0.18-0.14-0.35-0.27-0.53-0.41
				c-0.06-0.04-0.11-0.09-0.17-0.13c-1.19-0.87-2.49-1.59-3.87-2.16c-1.4-0.58-2.85-0.98-4.33-1.2c-0.04-0.01-0.08-0.02-0.13-0.02
				c-0.22-0.03-0.43-0.05-0.65-0.08c-0.09-0.01-0.18-0.02-0.27-0.03c-0.19-0.02-0.38-0.03-0.57-0.04c-0.12-0.01-0.23-0.02-0.35-0.03
				c-0.26-0.01-0.52-0.02-0.78-0.02c-0.05,0-0.1,0-0.15,0c-0.05,0-0.1,0-0.15,0c-0.26,0-0.52,0.01-0.78,0.02
				c-0.12,0.01-0.23,0.02-0.35,0.03c-0.19,0.01-0.38,0.02-0.57,0.04c-0.09,0.01-0.18,0.02-0.27,0.03c-0.22,0.02-0.43,0.05-0.65,0.08
				c-0.04,0.01-0.08,0.01-0.13,0.02c-1.49,0.23-2.94,0.63-4.33,1.2c-1.38,0.57-2.67,1.29-3.87,2.16c-0.06,0.04-0.11,0.09-0.17,0.13
				c-0.18,0.13-0.36,0.27-0.53,0.41c-0.12,0.09-0.23,0.2-0.35,0.29c-0.11,0.09-0.22,0.19-0.33,0.28c-0.22,0.2-0.45,0.4-0.66,0.61
				c-0.22,0.21-0.43,0.43-0.63,0.64c-0.1,0.1-0.19,0.21-0.28,0.32c-0.1,0.12-0.21,0.23-0.31,0.35c-0.14,0.17-0.28,0.34-0.41,0.51
				c-0.05,0.06-0.09,0.11-0.14,0.17c-0.89,1.16-1.63,2.42-2.21,3.77c-0.52,1.19-0.89,2.42-1.14,3.68c0.09-0.01,0.15-0.02,0.2-0.03
				c0.41-0.37,0.82-0.73,1.25-1.11l0.46-0.4c0.03-0.03,0.07-0.06,0.11-0.09c0.54-0.43,1.13-0.75,1.76-0.97
				c0.28-0.65,0.61-1.29,0.99-1.9c0.26-0.43,0.55-0.84,0.86-1.25c0.46-0.61,0.97-1.18,1.53-1.73c2.97-2.9,6.93-4.49,11.13-4.49
				c1.05,0,2.09,0.1,3.09,0.29c0.76,0.15,1.5,0.35,2.22,0.6c0.48,0.17,0.95,0.36,1.41,0.57c1.61,0.74,3.1,1.76,4.4,3.03
				c1.35,1.31,2.42,2.82,3.19,4.46c0.19-0.01,0.38-0.02,0.56-0.02c0.96,0,1.86,0.15,2.69,0.44c-0.13-0.37-0.27-0.74-0.43-1.1
				C84.08,23.75,83.34,22.49,82.45,21.32z"/>
		</g>
		<g>
			<path class="st4" d="M87.69,24.98c-0.12-0.33-0.25-0.65-0.39-0.97c-0.14-0.31-0.28-0.62-0.43-0.92c-0.3-0.61-0.63-1.2-0.98-1.77
				c-0.18-0.29-0.36-0.57-0.56-0.85c-0.77-1.11-1.65-2.15-2.63-3.11c-1.97-1.92-4.27-3.43-6.82-4.48c-2.65-1.09-5.46-1.64-8.35-1.64
				c-2.9,0-5.71,0.55-8.35,1.64c-2.56,1.05-4.85,2.56-6.82,4.48c-0.49,0.48-0.96,0.98-1.4,1.5c-0.66,0.78-1.26,1.6-1.79,2.46
				c-0.53,0.86-1.01,1.76-1.41,2.69c-0.28,0.66-0.53,1.32-0.74,2c0,0,0,0,0,0c0.18-0.58,0.4-1.16,0.64-1.73
				c-0.54,1.3-0.95,2.64-1.21,4.02c0.15,0.21,0.29,0.42,0.42,0.66c0.27-0.11,0.57-0.17,0.89-0.17h0.48c0.1,0,0.2,0.01,0.3,0.02
				c0.08,0.01,0.12,0.01,0.16,0.01c0.25,0,0.44-0.01,0.58-0.02c0.52-2.7,1.66-5.24,3.35-7.45c0.04-0.06,0.09-0.11,0.14-0.17
				c0.14-0.17,0.27-0.34,0.41-0.51c0.1-0.12,0.2-0.23,0.31-0.35c0.09-0.11,0.19-0.22,0.28-0.32c0.2-0.22,0.41-0.43,0.63-0.64
				c0.22-0.21,0.44-0.42,0.66-0.61c0.11-0.1,0.22-0.19,0.33-0.28c0.12-0.1,0.23-0.2,0.35-0.29c0.17-0.14,0.35-0.27,0.53-0.41
				c0.06-0.04,0.11-0.09,0.17-0.13c2.42-1.76,5.22-2.91,8.2-3.36c0.04-0.01,0.08-0.02,0.13-0.02c0.22-0.03,0.43-0.05,0.65-0.08
				c0.09-0.01,0.18-0.02,0.27-0.03c0.19-0.02,0.38-0.03,0.57-0.04c0.12-0.01,0.23-0.02,0.35-0.03c0.26-0.01,0.52-0.02,0.78-0.02
				c0.05,0,0.1,0,0.15,0c0.05,0,0.1,0,0.15,0c0.26,0,0.52,0.01,0.78,0.02c0.12,0.01,0.23,0.02,0.35,0.03
				c0.19,0.01,0.38,0.02,0.57,0.04c0.09,0.01,0.18,0.02,0.27,0.03c0.22,0.02,0.43,0.05,0.65,0.08c0.04,0.01,0.08,0.01,0.13,0.02
				c2.98,0.45,5.78,1.6,8.2,3.36c0.06,0.04,0.11,0.09,0.17,0.13c0.18,0.13,0.36,0.27,0.53,0.41c0.12,0.09,0.23,0.19,0.34,0.29
				c0.11,0.1,0.23,0.19,0.34,0.29c0.21,0.19,0.42,0.38,0.62,0.57c0.01,0.01,0.03,0.03,0.04,0.04c0.01,0.01,0.02,0.02,0.03,0.03
				c0,0,0,0-0.01-0.01c0.01,0.01,0.01,0.01,0.02,0.02c0.2,0.2,0.4,0.4,0.59,0.6c0.1,0.11,0.2,0.22,0.3,0.33
				c0.1,0.11,0.2,0.22,0.29,0.33c0.15,0.17,0.28,0.35,0.42,0.52c0.04,0.05,0.09,0.11,0.13,0.16c1.14,1.49,2.03,3.13,2.65,4.87
				c1.35,0.47,2.53,1.32,3.48,2.51c0.03-0.04,0.06-0.08,0.09-0.12c-0.04-0.2-0.07-0.4-0.11-0.6C88.35,26.97,88.06,25.96,87.69,24.98
				z"/>
		</g>
		<g>
			<path class="st3" d="M91.03,26.06c-0.06-0.2-0.12-0.41-0.18-0.61c-0.04-0.15-0.09-0.3-0.14-0.44c-0.07-0.23-0.15-0.46-0.24-0.68
				c-0.04-0.12-0.08-0.24-0.13-0.36c-0.13-0.35-0.27-0.69-0.42-1.03c-0.14-0.33-0.3-0.66-0.46-0.98c-0.05-0.11-0.11-0.21-0.16-0.31
				c-0.11-0.22-0.22-0.43-0.34-0.65c-0.07-0.12-0.14-0.24-0.21-0.36c-0.11-0.19-0.22-0.39-0.34-0.58c-0.08-0.12-0.15-0.25-0.23-0.37
				c-0.12-0.18-0.24-0.37-0.36-0.55c-0.08-0.12-0.16-0.24-0.25-0.36c-0.13-0.18-0.26-0.36-0.4-0.54c-0.08-0.11-0.17-0.22-0.25-0.33
				c-0.15-0.19-0.3-0.38-0.46-0.57c-0.08-0.09-0.15-0.18-0.22-0.27c-0.24-0.28-0.48-0.55-0.72-0.82c-0.26-0.28-0.54-0.56-0.82-0.83
				c-2.23-2.18-4.83-3.89-7.73-5.08c-3-1.24-6.19-1.86-9.47-1.86c-3.28,0-6.47,0.63-9.47,1.86c-2.9,1.19-5.5,2.9-7.73,5.08
				c-0.84,0.82-1.61,1.68-2.31,2.6c-0.47,0.61-0.9,1.24-1.31,1.89c-0.2,0.32-0.4,0.65-0.58,0.99c-0.37,0.67-0.71,1.36-1.02,2.06
				c-0.13,0.31-0.26,0.62-0.38,0.93c-0.04,0.09-0.07,0.19-0.11,0.28c-0.09,0.24-0.17,0.49-0.25,0.73c-0.06,0.17-0.11,0.34-0.17,0.52
				c-0.1,0.33-0.2,0.66-0.28,0.99c0.9,0.37,1.66,0.9,2.27,1.6c0.02,0.02,0.03,0.03,0.04,0.05c0.07,0.08,0.13,0.17,0.19,0.26
				c0.28-1.46,0.72-2.89,1.32-4.28c0,0,0,0,0,0c0.21-0.47,0.43-0.94,0.67-1.39c0.39-0.74,0.82-1.46,1.29-2.15
				c0.35-0.5,0.72-0.99,1.11-1.46c0.37-0.44,0.76-0.87,1.17-1.29c0.12-0.12,0.23-0.24,0.36-0.36c-0.1,0.1-0.2,0.2-0.3,0.3
				c0.1-0.1,0.19-0.2,0.3-0.3c1.97-1.92,4.27-3.43,6.82-4.48c2.65-1.09,5.46-1.64,8.35-1.64c2.9,0,5.71,0.55,8.35,1.64
				c2.56,1.05,4.85,2.56,6.82,4.48c0.1,0.1,0.2,0.2,0.3,0.3c-0.1-0.1-0.19-0.2-0.3-0.3c0.25,0.24,0.49,0.49,0.72,0.74
				c1.63,1.75,2.93,3.73,3.88,5.91c0.64,1.48,1.1,3.01,1.37,4.58c0.27-0.36,0.58-0.69,0.93-0.99c0.46-0.41,0.99-0.75,1.57-1.02
				c0-0.01,0-0.02-0.01-0.03C91.12,26.38,91.08,26.22,91.03,26.06z"/>
		</g>
		<g>
			<path class="st2" d="M93.5,24.32c-0.27-0.84-0.58-1.67-0.93-2.49c-0.17-0.39-0.35-0.78-0.54-1.17c-0.19-0.38-0.39-0.76-0.6-1.14
				c-0.42-0.75-0.87-1.47-1.35-2.18c-0.73-1.05-1.54-2.06-2.42-3.01c-0.3-0.32-0.6-0.63-0.91-0.93c-0.62-0.61-1.27-1.18-1.95-1.73
				c-0.67-0.54-1.37-1.05-2.09-1.52c-0.36-0.24-0.73-0.47-1.1-0.69c-0.74-0.44-1.51-0.84-2.3-1.21c-0.39-0.18-0.79-0.36-1.2-0.53
				c-0.42-0.17-0.84-0.33-1.27-0.49c-0.43-0.15-0.85-0.29-1.29-0.42c-0.65-0.19-1.3-0.37-1.96-0.51c-0.22-0.05-0.44-0.1-0.66-0.14
				c-0.88-0.17-1.78-0.3-2.68-0.39c-0.9-0.09-1.81-0.13-2.73-0.13c-0.23,0-0.46,0-0.69,0.01c-0.46,0.01-0.91,0.03-1.37,0.07
				c-2.72,0.2-5.37,0.79-7.9,1.76c-0.21,0.08-0.42,0.16-0.63,0.25c-0.4,0.17-0.8,0.34-1.2,0.53c-0.79,0.37-1.56,0.77-2.3,1.21
				c-0.37,0.22-0.74,0.45-1.1,0.69c-0.72,0.47-1.42,0.98-2.09,1.52c-0.67,0.54-1.32,1.12-1.95,1.73c-0.31,0.3-0.62,0.61-0.91,0.93
				c-0.71,0.77-1.37,1.57-1.99,2.41c-0.3,0.41-0.59,0.82-0.86,1.25c-0.18,0.27-0.35,0.55-0.52,0.83c-0.58,0.96-1.1,1.96-1.55,3
				c-0.27,0.61-0.51,1.23-0.72,1.86c-0.24,0.69-0.44,1.38-0.62,2.08c1.05,0.06,1.98,0.26,2.8,0.6c0.13-0.51,0.28-1.01,0.45-1.51
				c0.08-0.25,0.16-0.49,0.25-0.73c0.03-0.09,0.07-0.19,0.11-0.28c0.12-0.31,0.24-0.62,0.38-0.93c0.61-1.41,1.36-2.75,2.23-4.01
				c0.44-0.63,0.9-1.24,1.4-1.83c0.5-0.59,1.03-1.15,1.58-1.7c2.23-2.18,4.84-3.89,7.73-5.08c3-1.24,6.18-1.86,9.47-1.86
				c3.28,0,6.47,0.63,9.47,1.86c2.9,1.19,5.5,2.9,7.73,5.08c0.28,0.27,0.55,0.55,0.82,0.83c0.25,0.27,0.49,0.54,0.72,0.81
				c-0.24-0.28-0.48-0.55-0.72-0.81c0.25,0.27,0.49,0.54,0.73,0.82c0.08,0.09,0.15,0.18,0.23,0.28c0.16,0.19,0.31,0.38,0.46,0.57
				c0.09,0.11,0.17,0.22,0.25,0.34c0.13,0.18,0.27,0.36,0.39,0.54c0.08,0.12,0.17,0.24,0.25,0.36c0.12,0.18,0.24,0.36,0.36,0.55
				c0.08,0.12,0.16,0.25,0.23,0.37c0.12,0.19,0.23,0.38,0.34,0.58c0.07,0.12,0.14,0.24,0.21,0.36c0.12,0.21,0.23,0.43,0.34,0.65
				c0.05,0.11,0.11,0.21,0.16,0.31c0.16,0.32,0.31,0.65,0.46,0.98c0.15,0.34,0.29,0.69,0.42,1.03c0.05,0.12,0.09,0.24,0.13,0.36
				c0.08,0.23,0.16,0.46,0.24,0.69c0.05,0.15,0.09,0.3,0.14,0.45c0.06,0.2,0.12,0.41,0.18,0.61c0.04,0.16,0.09,0.33,0.13,0.49
				c0,0.01,0.01,0.02,0.01,0.03c0.81-0.39,1.74-0.64,2.76-0.75c-0.02-0.08-0.04-0.16-0.06-0.24C93.76,25.17,93.64,24.74,93.5,24.32z
				"/>
		</g>
		<g>
			<path class="st1" d="M38.28,25.94c0.65-0.12,1.34-0.19,2.08-0.19c0.26,0,0.52,0.01,0.77,0.03c0.18-0.7,0.38-1.4,0.62-2.08
				c0.22-0.63,0.46-1.25,0.72-1.86c0.45-1.04,0.97-2.04,1.55-3c0.17-0.28,0.34-0.56,0.52-0.83c0.28-0.42,0.56-0.84,0.86-1.25
				c0.61-0.84,1.27-1.64,1.99-2.41c0.3-0.32,0.6-0.63,0.91-0.93c0.62-0.61,1.27-1.18,1.95-1.73c0.67-0.54,1.37-1.05,2.09-1.52
				c0.36-0.24,0.73-0.47,1.1-0.69c0.74-0.44,1.51-0.84,2.3-1.21c0.39-0.18,0.79-0.36,1.2-0.53c0.21-0.09,0.42-0.17,0.63-0.25
				c2.53-0.97,5.18-1.56,7.9-1.76c0.45-0.03,0.91-0.05,1.37-0.07c0.23-0.01,0.46-0.01,0.69-0.01c0.92,0,1.83,0.04,2.73,0.13
				c0.9,0.09,1.8,0.22,2.68,0.39c0.22,0.04,0.44,0.09,0.66,0.14c0.66,0.15,1.31,0.32,1.96,0.51c0.43,0.13,0.86,0.27,1.29,0.42
				c0.43,0.15,0.85,0.31,1.27,0.49c0.4,0.17,0.8,0.34,1.2,0.53c0.79,0.37,1.56,0.77,2.3,1.21c0.37,0.22,0.74,0.45,1.1,0.69
				c0.72,0.47,1.42,0.98,2.09,1.52s1.32,1.12,1.95,1.73c0.31,0.3,0.62,0.61,0.91,0.93c0.89,0.95,1.69,1.95,2.42,3.01
				c0.49,0.7,0.94,1.43,1.35,2.18c0.21,0.37,0.41,0.75,0.6,1.14c0.19,0.38,0.37,0.77,0.54,1.17c0.35,0.82,0.67,1.65,0.93,2.49
				c0.13,0.42,0.26,0.84,0.37,1.27c0.02,0.08,0.04,0.16,0.06,0.24c0.42-0.05,0.84-0.08,1.29-0.08c0.45,0,0.97,0.05,1.54,0.14
				c-1.08-4.85-3.4-9.26-6.62-12.88c0,0-0.01-0.01-0.01-0.01c-0.62-0.7-1.28-1.37-1.97-2.02c0,0-0.01-0.01-0.01-0.01
				c-0.17-0.16-0.34-0.31-0.51-0.47c-0.01-0.01-0.03-0.02-0.04-0.03c-0.16-0.15-0.33-0.29-0.5-0.43c-0.02-0.01-0.03-0.03-0.05-0.04
				c-0.16-0.14-0.33-0.27-0.5-0.41c-0.02-0.01-0.03-0.03-0.05-0.04c-0.17-0.14-0.34-0.27-0.51-0.4c-0.01-0.01-0.03-0.02-0.04-0.03
				c-0.17-0.13-0.35-0.27-0.53-0.4c-0.03-0.02-0.05-0.04-0.08-0.06c-0.17-0.12-0.33-0.24-0.5-0.36c-0.02-0.02-0.05-0.03-0.07-0.05
				c-0.17-0.12-0.35-0.24-0.52-0.35c-0.03-0.02-0.06-0.04-0.1-0.06c-0.17-0.11-0.34-0.22-0.51-0.32c-0.03-0.02-0.07-0.04-0.1-0.06
				c-0.17-0.11-0.34-0.21-0.51-0.31c-0.04-0.03-0.09-0.05-0.14-0.08c-0.16-0.09-0.32-0.19-0.49-0.28c-0.04-0.02-0.08-0.04-0.11-0.06
				c-0.17-0.1-0.34-0.19-0.52-0.28c-0.05-0.03-0.1-0.05-0.14-0.07c-0.16-0.09-0.33-0.17-0.5-0.26c-0.07-0.04-0.14-0.07-0.22-0.11
				c-0.14-0.07-0.29-0.14-0.43-0.21c-0.08-0.04-0.15-0.07-0.23-0.1c-0.14-0.07-0.29-0.13-0.43-0.2c-0.08-0.03-0.15-0.06-0.23-0.1
				c-0.15-0.06-0.29-0.13-0.44-0.19c-0.08-0.03-0.15-0.06-0.23-0.09c-0.15-0.06-0.3-0.12-0.44-0.18c-0.07-0.03-0.14-0.05-0.21-0.08
				c-0.16-0.06-0.31-0.12-0.47-0.18c-0.1-0.03-0.19-0.07-0.29-0.1c-0.13-0.05-0.27-0.09-0.4-0.14c-0.1-0.03-0.2-0.06-0.31-0.1
				c-0.13-0.04-0.26-0.08-0.39-0.12c-0.09-0.03-0.17-0.05-0.26-0.08c-0.15-0.04-0.3-0.09-0.45-0.13c-0.08-0.02-0.16-0.04-0.24-0.06
				C75.31,3.94,75.16,3.9,75,3.86c-0.09-0.02-0.19-0.04-0.28-0.07c-0.15-0.04-0.29-0.07-0.44-0.1c-0.12-0.03-0.23-0.05-0.35-0.07
				c-0.13-0.03-0.25-0.05-0.38-0.08c-0.11-0.02-0.22-0.04-0.33-0.06c-0.13-0.03-0.27-0.05-0.4-0.07c-0.13-0.02-0.25-0.04-0.38-0.06
				c-0.12-0.02-0.24-0.04-0.36-0.06c-0.14-0.02-0.28-0.04-0.42-0.06c-0.11-0.01-0.22-0.03-0.33-0.04c-0.1-0.01-0.2-0.02-0.31-0.03
				c-0.15-0.02-0.3-0.03-0.45-0.05c-0.06-0.01-0.12-0.01-0.18-0.02c-0.19-0.02-0.39-0.04-0.58-0.05c-0.07-0.01-0.15-0.01-0.22-0.01
				C69.42,3,69.24,2.99,69.06,2.98c-0.51-0.03-1.02-0.04-1.54-0.04c0,0-0.01,0-0.01,0c-0.51,0-1.02,0.01-1.53,0.04
				c-0.2,0.01-0.4,0.02-0.6,0.04c-0.05,0-0.11,0.01-0.16,0.01c-0.21,0.02-0.42,0.03-0.62,0.05c-0.04,0-0.09,0.01-0.13,0.01
				c-0.16,0.02-0.32,0.04-0.49,0.05c-0.09,0.01-0.18,0.02-0.27,0.03c-0.12,0.02-0.25,0.03-0.37,0.05c-0.13,0.02-0.25,0.03-0.38,0.05
				c-0.13,0.02-0.26,0.04-0.39,0.06c-0.12,0.02-0.23,0.04-0.35,0.06c-0.14,0.03-0.29,0.05-0.43,0.08c-0.1,0.02-0.2,0.04-0.3,0.06
				c-0.14,0.03-0.27,0.06-0.4,0.09c-0.11,0.02-0.22,0.04-0.32,0.07c-0.16,0.04-0.32,0.07-0.48,0.11c-0.08,0.02-0.16,0.04-0.24,0.06
				c-0.17,0.04-0.33,0.09-0.5,0.13c-0.07,0.02-0.14,0.04-0.21,0.06c-0.16,0.04-0.32,0.09-0.47,0.14c-0.08,0.02-0.15,0.04-0.23,0.07
				c-0.14,0.04-0.28,0.09-0.42,0.13c-0.09,0.03-0.19,0.06-0.28,0.09c-0.14,0.05-0.29,0.1-0.43,0.15c-0.09,0.03-0.17,0.06-0.26,0.09
				c-0.17,0.06-0.34,0.12-0.5,0.19c-0.06,0.02-0.12,0.04-0.18,0.07c-0.16,0.06-0.31,0.12-0.47,0.19c-0.07,0.03-0.14,0.05-0.21,0.08
				c-0.15,0.06-0.3,0.13-0.45,0.19c-0.07,0.03-0.15,0.06-0.22,0.09c-0.15,0.07-0.3,0.14-0.45,0.2c-0.07,0.03-0.14,0.06-0.21,0.1
				c-0.15,0.07-0.31,0.15-0.46,0.22c-0.06,0.03-0.13,0.06-0.19,0.09c-0.17,0.08-0.34,0.17-0.5,0.26c-0.05,0.02-0.09,0.05-0.14,0.07
				c-0.18,0.1-0.36,0.19-0.54,0.29c-0.03,0.02-0.06,0.03-0.09,0.05C52.46,6.9,52.29,7,52.13,7.1c-0.04,0.02-0.07,0.04-0.11,0.06
				c-0.18,0.11-0.36,0.22-0.54,0.33c-0.02,0.01-0.05,0.03-0.07,0.04c-0.17,0.11-0.34,0.22-0.51,0.33c-0.03,0.02-0.06,0.04-0.09,0.06
				c-0.18,0.12-0.37,0.24-0.55,0.37c-0.01,0.01-0.03,0.02-0.04,0.03c-0.18,0.12-0.35,0.25-0.52,0.37c-0.02,0.01-0.04,0.03-0.06,0.04
				C49.45,8.86,49.27,9,49.1,9.13c-0.01,0.01-0.03,0.02-0.04,0.03c-0.18,0.14-0.36,0.28-0.53,0.42c-0.01,0.01-0.02,0.01-0.03,0.02
				c-0.17,0.14-0.33,0.27-0.5,0.41c-0.02,0.01-0.03,0.03-0.05,0.04c-0.17,0.14-0.33,0.29-0.5,0.43c-0.01,0.01-0.03,0.02-0.04,0.03
				c-0.17,0.15-0.34,0.31-0.51,0.47c0,0-0.01,0.01-0.01,0.01C42.63,14.95,39.57,20.12,38.28,25.94z"/>
		</g>
		<g>
			<path class="st9" d="M46.89,10.99c0,0,0.01-0.01,0.01-0.01c0.17-0.16,0.34-0.31,0.51-0.47c0.01-0.01,0.03-0.02,0.04-0.03
				c0.16-0.15,0.33-0.29,0.5-0.43c0.02-0.01,0.03-0.03,0.05-0.04c0.16-0.14,0.33-0.28,0.5-0.41c0.01-0.01,0.02-0.01,0.03-0.02
				c0.18-0.14,0.35-0.28,0.53-0.42c0.01-0.01,0.03-0.02,0.04-0.03c0.18-0.13,0.35-0.27,0.53-0.4c0.02-0.01,0.04-0.03,0.06-0.04
				c0.17-0.13,0.35-0.25,0.52-0.37c0.01-0.01,0.03-0.02,0.04-0.03c0.18-0.12,0.36-0.25,0.55-0.37c0.03-0.02,0.06-0.04,0.09-0.06
				c0.17-0.11,0.34-0.22,0.51-0.33c0.02-0.01,0.05-0.03,0.07-0.04c0.18-0.11,0.36-0.22,0.54-0.33c0.04-0.02,0.07-0.04,0.11-0.06
				c0.17-0.1,0.34-0.2,0.51-0.29c0.03-0.02,0.06-0.03,0.09-0.05c0.18-0.1,0.36-0.2,0.54-0.29c0.05-0.02,0.09-0.05,0.14-0.07
				c0.17-0.09,0.33-0.17,0.5-0.26c0.06-0.03,0.13-0.06,0.19-0.09c0.15-0.08,0.31-0.15,0.46-0.22c0.07-0.03,0.14-0.06,0.21-0.1
				c0.15-0.07,0.3-0.14,0.45-0.2c0.07-0.03,0.15-0.06,0.22-0.09c0.15-0.06,0.3-0.13,0.45-0.19c0.07-0.03,0.14-0.05,0.21-0.08
				c0.16-0.06,0.31-0.13,0.47-0.19c0.06-0.02,0.12-0.04,0.18-0.07c0.17-0.06,0.34-0.13,0.5-0.19c0.09-0.03,0.17-0.06,0.26-0.09
				c0.14-0.05,0.29-0.1,0.43-0.15c0.09-0.03,0.19-0.06,0.28-0.09c0.14-0.04,0.28-0.09,0.42-0.13c0.08-0.02,0.15-0.04,0.23-0.07
				c0.16-0.05,0.32-0.09,0.47-0.14c0.07-0.02,0.14-0.04,0.21-0.06c0.17-0.04,0.33-0.09,0.5-0.13c0.08-0.02,0.16-0.04,0.24-0.06
				c0.16-0.04,0.32-0.08,0.48-0.11c0.11-0.02,0.22-0.05,0.32-0.07c0.13-0.03,0.27-0.06,0.4-0.09c0.1-0.02,0.2-0.04,0.3-0.06
				c0.14-0.03,0.29-0.06,0.43-0.08c0.11-0.02,0.23-0.04,0.35-0.06c0.13-0.02,0.26-0.04,0.39-0.06c0.12-0.02,0.25-0.03,0.38-0.05
				c0.12-0.02,0.25-0.04,0.37-0.05c0.09-0.01,0.18-0.02,0.27-0.03c0.16-0.02,0.32-0.04,0.49-0.05c0.04,0,0.09-0.01,0.13-0.01
				c0.21-0.02,0.41-0.04,0.62-0.05c0.05,0,0.11-0.01,0.16-0.01c0.2-0.01,0.4-0.03,0.6-0.04c0.51-0.02,1.01-0.04,1.53-0.04
				c0,0,0.01,0,0.01,0l0,0h0c0.52,0,1.03,0.01,1.54,0.04C69.24,2.99,69.42,3,69.6,3.01c0.07,0,0.15,0.01,0.22,0.01
				c0.19,0.01,0.39,0.03,0.58,0.05c0.06,0.01,0.12,0.01,0.18,0.02c0.15,0.01,0.3,0.03,0.45,0.05c0.1,0.01,0.2,0.02,0.31,0.03
				c0.11,0.01,0.22,0.03,0.33,0.04c0.14,0.02,0.28,0.04,0.42,0.06c0.12,0.02,0.24,0.04,0.36,0.06c0.13,0.02,0.26,0.04,0.38,0.06
				c0.13,0.02,0.27,0.05,0.4,0.07c0.11,0.02,0.22,0.04,0.33,0.06c0.13,0.03,0.25,0.05,0.38,0.08c0.12,0.02,0.23,0.05,0.35,0.07
				c0.15,0.03,0.29,0.07,0.44,0.1C74.81,3.82,74.9,3.84,75,3.86c0.16,0.04,0.31,0.08,0.47,0.12c0.08,0.02,0.16,0.04,0.24,0.06
				c0.15,0.04,0.3,0.09,0.45,0.13c0.09,0.03,0.17,0.05,0.26,0.08c0.13,0.04,0.26,0.08,0.39,0.12c0.1,0.03,0.21,0.06,0.31,0.1
				c0.13,0.04,0.27,0.09,0.4,0.14c0.1,0.03,0.19,0.07,0.29,0.1c0.16,0.06,0.32,0.12,0.47,0.18c0.07,0.03,0.14,0.05,0.21,0.08
				c0.15,0.06,0.3,0.12,0.44,0.18c0.08,0.03,0.15,0.06,0.23,0.09c0.15,0.06,0.29,0.12,0.44,0.19c0.08,0.03,0.15,0.06,0.23,0.1
				c0.14,0.06,0.29,0.13,0.43,0.2c0.08,0.03,0.15,0.07,0.23,0.1c0.14,0.07,0.29,0.14,0.43,0.21c0.07,0.04,0.15,0.07,0.22,0.11
				c0.17,0.08,0.33,0.17,0.5,0.26c0.05,0.02,0.1,0.05,0.14,0.07c0.17,0.09,0.35,0.19,0.52,0.28c0.04,0.02,0.08,0.04,0.11,0.06
				c0.16,0.09,0.33,0.19,0.49,0.28c0.04,0.03,0.09,0.05,0.14,0.08c0.17,0.1,0.34,0.21,0.51,0.31c0.03,0.02,0.07,0.04,0.1,0.06
				c0.17,0.11,0.34,0.22,0.51,0.32c0.03,0.02,0.06,0.04,0.1,0.06c0.18,0.12,0.35,0.23,0.52,0.35c0.02,0.02,0.05,0.03,0.07,0.05
				c0.17,0.12,0.33,0.24,0.5,0.36c0.03,0.02,0.05,0.04,0.08,0.06c0.18,0.13,0.35,0.26,0.53,0.4c0.01,0.01,0.03,0.02,0.04,0.03
				c0.17,0.13,0.34,0.27,0.51,0.4c0.02,0.01,0.03,0.03,0.05,0.04c0.17,0.13,0.33,0.27,0.5,0.41c0.02,0.01,0.03,0.03,0.05,0.04
				c0.17,0.14,0.33,0.29,0.5,0.43c0.01,0.01,0.03,0.02,0.04,0.03c0.17,0.15,0.34,0.31,0.51,0.47c0,0,0.01,0.01,0.01,0.01
				c0.69,0.64,1.35,1.31,1.97,2.02c0,0,0.01,0.01,0.01,0.01c3.22,3.62,5.54,8.02,6.62,12.88c0.75,0.12,1.59,0.32,2.56,0.61
				c0.27,0.08,0.51,0.21,0.73,0.37C97.62,11.67,83.98,0.03,67.52,0.03c-16.63,0-30.38,11.89-32.6,27.32
				c0.94-0.7,2.06-1.17,3.35-1.41C39.57,20.12,42.63,14.95,46.89,10.99z"/>
		</g>
	</g>
	<g>
		<g>
			<path class="st10" d="M67.48,47.95v5.53c0,0.71,0.55,1.28,1.2,1.28h28.43c0.65,0,1.2-0.57,1.2-1.28v-5.53
				c0-0.71-0.55-1.31-1.2-1.31H68.69C68.03,46.64,67.48,47.24,67.48,47.95z M69.24,51.38c0-0.93,0.68-1.66,1.51-1.66
				c0.8,0,1.48,0.74,1.48,1.66c0,0.9-0.68,1.63-1.48,1.63C69.92,53.01,69.24,52.28,69.24,51.38z M92.28,47.81
				c0.3-0.11,0.6-0.16,0.93-0.16c0.65,0,1.15,0.19,1.53,0.54c0.35,0.38,0.55,0.87,0.55,1.53v3.89h-1.38v-3.7
				c0-0.76-0.35-1.14-1.05-1.14c-0.2,0-0.4,0.05-0.6,0.19c-0.18,0.11-0.3,0.25-0.4,0.41v4.25H90.5v-3.89c0-0.3-0.1-0.54-0.28-0.71
				c-0.17-0.16-0.43-0.25-0.75-0.25c-0.18,0-0.38,0.05-0.58,0.19c-0.2,0.14-0.35,0.27-0.45,0.41v4.25h-1.35v-5.85h0.93l0.3,0.52
				c0.38-0.44,0.85-0.63,1.48-0.63c0.78,0,1.36,0.22,1.76,0.63C91.73,48.09,91.95,47.92,92.28,47.81z M85.22,48.47
				c0.5,0.49,0.75,1.25,0.75,2.18c0,0.95-0.25,1.69-0.78,2.23c-0.5,0.57-1.18,0.84-2.06,0.84c-0.9,0-1.61-0.27-2.08-0.84
				c-0.5-0.54-0.75-1.31-0.75-2.23c0-0.9,0.25-1.61,0.78-2.15c0.53-0.57,1.2-0.84,2.06-0.84C84.04,47.65,84.72,47.92,85.22,48.47z
				 M79.53,48.22l-0.58,1.01c-0.33-0.33-0.75-0.46-1.3-0.46c-0.53,0-0.93,0.16-1.23,0.52c-0.3,0.35-0.45,0.82-0.45,1.44
				c0,1.23,0.58,1.85,1.76,1.85c0.53,0,0.98-0.19,1.36-0.52l0.5,1.09c-0.4,0.25-0.75,0.41-1.05,0.46c-0.28,0.08-0.65,0.11-1.06,0.11
				c-0.9,0-1.63-0.27-2.16-0.79c-0.53-0.54-0.78-1.28-0.78-2.21c0-0.92,0.28-1.69,0.85-2.23c0.58-0.57,1.38-0.84,2.36-0.84
				C78.45,47.65,79.03,47.84,79.53,48.22z M82.11,49.23c-0.25,0.35-0.38,0.82-0.38,1.42c0,1.31,0.48,1.96,1.4,1.96
				c0.43,0,0.78-0.19,1.03-0.52c0.25-0.33,0.38-0.82,0.38-1.44c0-1.28-0.48-1.91-1.41-1.91C82.72,48.74,82.36,48.9,82.11,49.23z"/>
		</g>
		<g>
			<path class="st10" d="M110.24,20.77c-1.43-0.31-2.66,0.55-3.51,1.62c-0.98,1.24-1.64,2.75-2.17,4.22c-0.7,1.96-1.2,4-1.58,6.04
				c-0.4,2.1-0.64,4.23-0.71,6.37c-0.03,1.06-0.03,2.12,0.03,3.17c0.03,0.52,0.08,1.04,0.15,1.56c0.04,0.25,0.08,0.49,0.13,0.74
				c0.02,0.12,0.05,0.24,0.08,0.37c0.03,0.03,0.14-0.01,0.17-0.02c0.91-0.2,1.9-0.24,2.83-0.18c1,0.07,1.93,0.37,2.8,0.87
				c0.21,0.12,0.42,0.25,0.62,0.39c0.1,0.07,0.21,0.14,0.31,0.22c0.09,0.07,0.16,0.16,0.26,0.21c0.26-0.42,0.5-0.85,0.71-1.3
				c0.43-0.89,0.77-1.82,1.09-2.76c0.66-1.98,1.17-4,1.53-6.06c0.36-2.09,0.59-4.21,0.66-6.33c0.06-1.8,0-3.64-0.43-5.4
				C112.82,22.92,112,21.14,110.24,20.77z M105.54,36.64l6.51-5.86c0.01,1.19-0.03,2.39-0.16,3.58c-0.13,1.19-0.35,2.38-0.6,3.56
				c-1.59-0.35-3.17-0.7-4.76-1.05C106.2,36.79,105.87,36.71,105.54,36.64z M106.56,26.56c0.47-0.81,0.93-1.6,1.61-2.26
				c0.52-0.51,1.33-1.04,2.03-0.52c0.6,0.44,0.92,1.25,1.15,1.93c0.31,0.89,0.49,1.87,0.57,2.81c-1.89-0.45-3.79-0.87-5.68-1.3
				C106.34,26.99,106.45,26.77,106.56,26.56z M103.94,34.97c0.21-1.01,0.37-2.03,0.61-3.04c0.12-0.5,0.27-1,0.43-1.49
				c0.04-0.11,0.39-1.25,0.42-1.24c0.7,0.16,1.41,0.32,2.11,0.48c0.87,0.2,1.75,0.39,2.62,0.59l-6.28,5.31
				C103.88,35.38,103.91,35.18,103.94,34.97z M110.58,40.68c-0.15,0.47-0.31,0.95-0.49,1.41c-0.02,0.05-0.21,0.55-0.24,0.55
				c-0.02,0-0.03-0.01-0.05-0.01c-0.24-0.05-0.49-0.1-0.73-0.16c-0.97-0.21-1.94-0.41-2.9-0.62c-0.86-0.18-1.72-0.37-2.57-0.55
				c-0.02-0.47-0.02-0.93-0.04-1.4c-0.02-0.48,0.05-0.95,0.04-1.42c1.52,0.35,3.03,0.69,4.55,1.04c0.87,0.2,1.74,0.4,2.6,0.59
				C110.69,40.3,110.63,40.49,110.58,40.68z"/>
		</g>
		<g>
			<path class="st11" d="M33.23,44.86H20.4c-0.55,0-1.03-0.19-1.43-0.57c-0.38-0.38-0.58-0.82-0.58-1.31c0-0.55,0.23-1.25,0.7-2.15
				l9.19-17.67h-4.82c-1.23,0-2.08,0.22-2.53,0.63c-0.45,0.41-0.7,1.22-0.73,2.5h-1.53v-5.53h11.49c1.73,0,2.61,0.71,2.61,2.1
				c0,0.41-0.12,0.9-0.4,1.42l-9.49,18.22h10.34V44.86z"/>
		</g>
		<g>
			<path class="st11" d="M45.32,42.9h-1.76c-0.75,0-1.38,0.19-1.86,0.6c-0.95,0.74-1.43,1.14-1.48,1.17
				c-0.6,0.38-1.31,0.57-2.08,0.57c-1.25,0-2.31-0.41-3.16-1.22c-0.85-0.82-1.28-1.8-1.28-2.94c0-3.35,2.66-5.17,7.93-5.44v-1.53
				c0-1.47-0.1-2.53-0.35-3.19c-0.23-0.65-0.65-0.98-1.23-0.98c-0.58,0-0.98,0.27-1.15,0.87c-0.02,0.03-0.13,0.65-0.3,1.83
				c-0.18,1.17-0.88,1.8-2.16,1.8l-2.03-2.1c0.05-1.28,0.58-2.31,1.58-3.08c1.03-0.79,2.38-1.17,4.09-1.17
				c1.91,0,3.26,0.49,4.07,1.42c0.78,0.95,1.18,2.56,1.18,4.79V42.9L45.32,42.9z M41.64,40.8v-3.32c-2.64,0.16-3.97,1.14-3.97,3
				c0,1.47,0.5,2.23,1.51,2.23C40.26,42.71,41.06,42.06,41.64,40.8z"/>
		</g>
		<g>
			<path class="st11" d="M47.46,31.11c0.13,0,0.3,0,0.48,0c0.23,0.03,0.38,0.03,0.45,0.03c1.03,0,1.71-0.14,2.08-0.41
				c0.63-0.57,1.28-1.14,1.96-1.74c0.73-0.57,1.56-0.84,2.48-0.84c1.68,0,3.01,0.74,3.99,2.26c0.98,1.53,1.48,3.62,1.48,6.32
				c0,2.78-0.53,4.93-1.56,6.45c-1.03,1.5-2.48,2.26-4.34,2.26c-1.41,0-2.54-0.57-3.41-1.69v6.48c0,0.57-0.18,1.04-0.5,1.42
				c-0.35,0.38-0.78,0.57-1.28,0.57c-0.53,0-0.95-0.19-1.31-0.6c-0.35-0.38-0.53-0.84-0.53-1.39V31.11L47.46,31.11z M51.07,37.94
				c0,3.32,0.9,4.96,2.69,4.96c1.73,0,2.59-2.1,2.59-6.26c0-4-0.83-6.02-2.51-6.02c-1.13,0-2.06,1.12-2.76,3.38V37.94z"/>
		</g>
		<g>
			<path class="st11" d="M61.89,31.11c0.13,0,0.28,0,0.48,0c0.2,0.03,0.35,0.03,0.45,0.03c1.03,0,1.71-0.14,2.08-0.41
				c0.63-0.57,1.28-1.14,1.93-1.74c0.75-0.57,1.58-0.84,2.51-0.84c1.66,0,2.99,0.74,3.97,2.26c0.98,1.53,1.45,3.62,1.45,6.32
				c0,2.78-0.5,4.93-1.53,6.45c-1.05,1.5-2.46,2.26-4.32,2.26c-1.41,0-2.53-0.57-3.41-1.69v6.48c0,0.57-0.17,1.04-0.53,1.42
				c-0.33,0.38-0.75,0.57-1.28,0.57c-0.5,0-0.93-0.19-1.28-0.6c-0.35-0.38-0.53-0.84-0.53-1.39V31.11L61.89,31.11z M65.5,37.94
				c0,3.32,0.88,4.96,2.69,4.96c1.73,0,2.58-2.1,2.58-6.26c0-4-0.85-6.02-2.53-6.02c-1.13,0-2.03,1.12-2.74,3.38V37.94z"/>
		</g>
		<g>
			<path class="st11" d="M88.32,36.8c0,5.61-2.08,8.44-6.2,8.44c-4.14,0-6.22-2.83-6.22-8.44c0-5.8,2.08-8.71,6.22-8.71
				c1.91,0,3.41,0.76,4.54,2.31C87.76,31.93,88.32,34.08,88.32,36.8L88.32,36.8z M84.7,38.19c0-2.53-0.07-4.22-0.2-4.98
				c-0.33-2.15-1.13-3.24-2.36-3.24c-0.95,0-1.63,0.54-2.03,1.66c-0.4,1.09-0.6,2.81-0.6,5.17c0,2.29,0.2,3.92,0.55,4.93
				c0.4,1.09,1.08,1.63,2.06,1.63C83.82,43.36,84.7,41.65,84.7,38.19z"/>
		</g>
		<g>
			<path class="st11" d="M97.07,32.34c0-1.44-0.78-2.15-2.33-2.15c-1.33,0-1.98,0.54-1.98,1.69c0,0.71,0.7,1.5,2.11,2.42
				c0.7,0.44,1.53,1.01,2.49,1.66c1.28,1.23,1.93,2.7,1.93,4.36c0,1.44-0.48,2.64-1.43,3.54c-0.95,0.9-2.18,1.33-3.71,1.33
				c-1.36,0-2.46-0.24-3.31-0.76c-0.85-0.52-1.31-1.17-1.31-1.91c0-0.46,0.33-0.68,0.98-0.68c0.18,0,0.35,0,0.48,0.03
				c1,0.74,1.93,1.12,2.79,1.12c1.43,0,2.16-0.57,2.16-1.72c0-0.63-0.28-1.17-0.83-1.69c-0.23-0.24-0.95-0.76-2.18-1.61
				c-1.23-0.84-2.11-1.61-2.61-2.29c-0.6-0.79-0.9-1.72-0.9-2.78c0-1.52,0.48-2.69,1.46-3.54c0.95-0.84,2.31-1.28,4.09-1.28
				c0.8,0,1.96,0.22,3.44,0.65v3.59H97.07z"/>
		</g>
		<g>
			<g>
				<path class="st10" d="M17.78,57.25c0.31-0.06,0.75-0.1,1.34-0.1c0.64,0,1.11,0.14,1.42,0.39c0.29,0.24,0.47,0.61,0.47,1.06
					c0,0.46-0.14,0.84-0.41,1.09c-0.35,0.35-0.9,0.51-1.52,0.51c-0.16,0-0.31-0.01-0.43-0.03V62h-0.87V57.25z M18.65,59.5
					c0.11,0.03,0.25,0.04,0.43,0.04c0.66,0,1.06-0.32,1.06-0.89c0-0.54-0.37-0.82-0.98-0.82c-0.24,0-0.41,0.02-0.51,0.04V59.5z"/>
			</g>
			<g>
				<path class="st10" d="M27.97,59.55c0,1.61-0.98,2.54-2.31,2.54c-1.36,0-2.21-1.04-2.21-2.45c0-1.48,0.93-2.52,2.29-2.52
					C27.14,57.11,27.97,58.17,27.97,59.55z M24.38,59.62c0,0.98,0.49,1.76,1.34,1.76c0.85,0,1.33-0.79,1.33-1.79
					c0-0.91-0.45-1.76-1.33-1.76C24.84,57.82,24.38,58.62,24.38,59.62z"/>
			</g>
			<g>
				<path class="st10" d="M31.41,62l-1.18-4.82h0.94l0.46,2.19c0.12,0.59,0.24,1.2,0.31,1.68h0.01c0.08-0.51,0.21-1.08,0.35-1.69
					l0.52-2.18h0.92l0.48,2.21c0.12,0.57,0.22,1.11,0.29,1.63h0.01c0.09-0.53,0.2-1.08,0.33-1.66l0.5-2.18h0.89L34.96,62h-0.94
					l-0.5-2.26c-0.12-0.55-0.21-1.01-0.26-1.53h-0.01c-0.09,0.51-0.18,0.98-0.32,1.53L32.36,62H31.41z"/>
			</g>
			<g>
				<path class="st10" d="M41.45,59.87h-1.81v1.41h2.03V62h-2.91v-4.82h2.8v0.72h-1.92v1.24h1.81V59.87z"/>
			</g>
			<g>
				<path class="st10" d="M44.36,57.25c0.33-0.06,0.82-0.1,1.33-0.1c0.69,0,1.16,0.11,1.49,0.39c0.26,0.22,0.41,0.56,0.41,0.96
					c0,0.62-0.42,1.04-0.87,1.21v0.02c0.34,0.13,0.55,0.46,0.67,0.93c0.15,0.6,0.28,1.16,0.38,1.34h-0.91
					c-0.07-0.14-0.19-0.54-0.32-1.14c-0.14-0.63-0.36-0.83-0.86-0.84h-0.44V62h-0.87V57.25z M45.23,59.38h0.52
					c0.59,0,0.96-0.31,0.96-0.79c0-0.53-0.37-0.77-0.94-0.77c-0.28,0-0.46,0.02-0.54,0.04V59.38z"/>
			</g>
			<g>
				<path class="st10" d="M53.04,59.87h-1.81v1.41h2.03V62h-2.91v-4.82h2.8v0.72h-1.92v1.24h1.81V59.87z"/>
			</g>
			<g>
				<path class="st10" d="M55.94,57.25c0.39-0.06,0.88-0.1,1.4-0.1c0.9,0,1.52,0.19,1.96,0.56c0.46,0.38,0.75,0.95,0.75,1.77
					c0,0.86-0.29,1.5-0.75,1.91c-0.48,0.44-1.24,0.66-2.18,0.66c-0.51,0-0.9-0.03-1.19-0.06V57.25z M56.82,61.33
					c0.12,0.02,0.31,0.02,0.49,0.02c1.14,0.01,1.82-0.62,1.82-1.84c0.01-1.06-0.61-1.67-1.71-1.67c-0.28,0-0.48,0.02-0.6,0.05V61.33
					z"/>
			</g>
			<g>
				<path class="st11" d="M63.21,61.41V62h-0.46v-4.35h0.46v1.89c0.25-0.37,0.61-0.68,1.18-0.68c0.74,0,1.47,0.58,1.47,1.6v0.01
					c0,1.01-0.73,1.6-1.47,1.6C63.81,62.07,63.44,61.76,63.21,61.41z M65.39,60.47v-0.01c0-0.73-0.5-1.19-1.08-1.19
					c-0.57,0-1.11,0.48-1.11,1.19v0.01c0,0.71,0.54,1.19,1.11,1.19C64.9,61.66,65.39,61.22,65.39,60.47z"/>
			</g>
			<g>
				<path class="st11" d="M70.46,58.92h0.49l-1.29,3.18c-0.26,0.64-0.56,0.87-1.02,0.87c-0.26,0-0.45-0.05-0.65-0.15l0.15-0.36
					c0.15,0.08,0.29,0.11,0.48,0.11c0.27,0,0.45-0.14,0.63-0.58l-1.4-3.07h0.51l1.12,2.57L70.46,58.92z"/>
			</g>
			<g>
				<path class="st10" d="M73.25,61.05c0.29,0.16,0.71,0.31,1.16,0.31c0.56,0,0.88-0.26,0.88-0.66c0-0.36-0.24-0.58-0.86-0.8
					c-0.79-0.29-1.3-0.71-1.3-1.4c0-0.79,0.66-1.39,1.7-1.39c0.52,0,0.91,0.11,1.16,0.24l-0.21,0.71c-0.17-0.09-0.51-0.23-0.96-0.23
					c-0.56,0-0.8,0.3-0.8,0.58c0,0.37,0.28,0.54,0.92,0.79c0.84,0.31,1.24,0.74,1.24,1.43c0,0.77-0.59,1.44-1.83,1.44
					c-0.51,0-1.04-0.14-1.3-0.3L73.25,61.05z"/>
			</g>
			<g>
				<path class="st10" d="M81.59,59.87h-1.81v1.41h2.03V62H78.9v-4.82h2.8v0.72h-1.92v1.24h1.81V59.87z"/>
			</g>
			<g>
				<path class="st10" d="M84.5,57.25c0.33-0.06,0.82-0.1,1.33-0.1c0.69,0,1.16,0.11,1.49,0.39c0.26,0.22,0.41,0.56,0.41,0.96
					c0,0.62-0.42,1.04-0.87,1.21v0.02c0.34,0.13,0.55,0.46,0.67,0.93c0.15,0.6,0.28,1.16,0.38,1.34H87
					c-0.07-0.14-0.19-0.54-0.32-1.14c-0.14-0.63-0.36-0.83-0.86-0.84h-0.44V62H84.5V57.25z M85.37,59.38h0.52
					c0.59,0,0.96-0.31,0.96-0.79c0-0.53-0.37-0.77-0.94-0.77c-0.28,0-0.46,0.02-0.54,0.04V59.38z"/>
			</g>
			<g>
				<path class="st10" d="M91.61,62l-1.56-4.82h0.96l0.66,2.19c0.19,0.61,0.34,1.17,0.47,1.76h0.01c0.13-0.57,0.3-1.16,0.49-1.74
					l0.7-2.2h0.94L92.62,62H91.61z"/>
			</g>
			<g>
				<path class="st10" d="M97.61,57.19V62h-0.88v-4.82H97.61z"/>
			</g>
			<g>
				<path class="st10" d="M103.99,61.86c-0.21,0.11-0.66,0.21-1.24,0.21c-1.53,0-2.46-0.96-2.46-2.42c0-1.59,1.1-2.54,2.57-2.54
					c0.58,0,0.99,0.12,1.17,0.21l-0.19,0.7c-0.23-0.1-0.54-0.19-0.94-0.19c-0.98,0-1.69,0.61-1.69,1.77c0,1.06,0.62,1.74,1.68,1.74
					c0.36,0,0.73-0.07,0.96-0.18L103.99,61.86z"/>
			</g>
			<g>
				<path class="st10" d="M109.35,59.87h-1.81v1.41h2.03V62h-2.91v-4.82h2.8v0.72h-1.92v1.24h1.81V59.87z"/>
			</g>
		</g>
		<g>
			<path class="st10" d="M108.86,51.29c-0.29,2.12-2.19,3.62-4.26,3.34c-2.07-0.28-3.51-2.22-3.22-4.35
				c0.29-2.12,2.19-3.62,4.26-3.34C107.71,47.23,109.15,49.17,108.86,51.29z"/>
		</g>
		<g>
			<path class="st11" d="M112.33,56.61c0.32,0,0.63,0.08,0.93,0.24c0.3,0.16,0.54,0.4,0.71,0.7c0.17,0.3,0.25,0.62,0.25,0.95
				c0,0.33-0.08,0.64-0.25,0.94c-0.17,0.3-0.4,0.53-0.7,0.7c-0.3,0.17-0.61,0.25-0.94,0.25c-0.33,0-0.64-0.08-0.94-0.25
				c-0.3-0.17-0.53-0.4-0.7-0.7c-0.17-0.3-0.25-0.61-0.25-0.94c0-0.33,0.08-0.64,0.25-0.95c0.17-0.3,0.41-0.54,0.71-0.7
				C111.7,56.69,112.01,56.61,112.33,56.61z M112.33,56.92c-0.27,0-0.52,0.07-0.78,0.2c-0.25,0.14-0.45,0.33-0.59,0.58
				c-0.14,0.25-0.21,0.52-0.21,0.79c0,0.27,0.07,0.53,0.21,0.78c0.14,0.25,0.33,0.44,0.59,0.58c0.25,0.14,0.51,0.21,0.78,0.21
				c0.27,0,0.53-0.07,0.78-0.21c0.25-0.14,0.45-0.33,0.58-0.58c0.14-0.25,0.21-0.51,0.21-0.78c0-0.27-0.07-0.54-0.21-0.79
				c-0.14-0.25-0.34-0.45-0.59-0.58C112.85,56.99,112.59,56.92,112.33,56.92z M111.5,59.55v-2.03h0.7c0.24,0,0.41,0.02,0.52,0.06
				c0.11,0.04,0.19,0.1,0.26,0.2c0.06,0.09,0.1,0.19,0.1,0.3c0,0.15-0.05,0.28-0.16,0.39c-0.11,0.11-0.25,0.17-0.42,0.19
				c0.07,0.03,0.13,0.07,0.17,0.11c0.08,0.08,0.18,0.21,0.3,0.4l0.25,0.4h-0.4l-0.18-0.32c-0.14-0.25-0.26-0.41-0.34-0.47
				c-0.06-0.05-0.15-0.07-0.26-0.07h-0.19v0.86H111.5z M111.83,58.4h0.4c0.19,0,0.32-0.03,0.39-0.09c0.07-0.06,0.1-0.13,0.1-0.23
				c0-0.06-0.02-0.11-0.05-0.16c-0.03-0.05-0.08-0.08-0.14-0.11c-0.06-0.02-0.17-0.04-0.33-0.04h-0.37V58.4z"/>
		</g>
	</g>
</g>
</svg>
