<svg width="178" height="171" xmlns="http://www.w3.org/2000/svg"><g fill="none" fill-rule="evenodd"><path d="M114.628 154.595c8.93-2.936 18.819-2.868 22.578-4.253 9.94-3.661 17.391-10.317 24.04-17.768 6.065-6.799 7.478-22.419 10.973-30.352 3.732-8.473 4.541-17.78 4-26.725-1.021-16.903-5.524-35.734-19.01-49.308-7.08-7.125-14.633-12.72-24.717-16.663-3.183-1.244-9.135-2.191-12.885-3.4a69.05 69.05 0 00-4.979-2.426c-8.892-3.883-21.404-.108-31.394-1.174-18.548-1.978-35.02-3.502-49.21 6.15-15.88 10.802-15.88 19.365-21.441 31.723-2.237 4.973-9.235 22.243-9.53 27.608-2.892 8.93-.84 19.807.026 29.395a74.882 74.882 0 00-.631 6.75c-.455 9.77 1.415 19.57 6.179 28.615 4.518 8.577 12.248 15.79 20.964 21.828 9.29 6.436 19.303 12.374 31.657 14 12.64 1.666 25.24-.6 36.614-5.021 2.578-1.002 9.301-6.525 16.766-8.98z" fill="#D8F0FF"/><path d="M103.764 85.331c-.215.164-.3.26-.388.516-.089.255.19.538.442.449.255-.092.347-.177.508-.394.24-.328-.24-.816-.562-.57m-28.298-.735c-.048-.306-.56-.306-.609 0-.014.08-.026.161-.039.241-.093.583.78.587.687 0l-.039-.24m1.931 2.252c-.449 0-.45.708 0 .708.448 0 .45-.708 0-.708" fill="#000"/><path d="M135.33 91.486c-.079-2.084.219-3.662-.291-4.129-.145-.28-4.74-.018-5.306-.067-1.447-.26-25.8-.12-28.538-.07a3.49 3.49 0 00-.51-.013c-2.645.18-44.857-.438-51.732.326-.529-.126-.873-.156-1.831-.113-.328.02-4.738-.264-5.498.241-.436.199-.194.373-.29 1.553-.115.458-.084 1.158-.285 2.105h.003c-1.133 5.83-.001 20.138-.003 24.082 0 .574.001.93.003 1.015l.002.077c.021 2.107.145 4.212.262 6.317-.011.275-.01.556 0 .84.01.283.028.57.053.857a4.833 4.833 0 00-.02.734c.017.324.031.63.045.929.002.069.006.139.009.206.012.292.023.577.031.854l.002.066a708.67 708.67 0 01.025.96c.005.262.01.525.013.793a177.946 177.946 0 01.01.857l.002.276.005.773c.004.95.007 2.02.016 3.312v.016l.007.803.005.644.004.36.013 1.098c.003.234 5.86.2 6.935.223.07.002.121.003.147.005-.017.005 10.116.135 23.432.255a5434.83 5434.83 0 0011.464.094c2.642.019 5.327.036 8.013.052 6.042.033 12.086.056 17.656.057a1674.967 1674.967 0 0010.366-.028 887.832 887.832 0 004.443-.041c1.842-.022 3.495-.051 4.92-.086a125.51 125.51 0 003.54-.127 33.9 33.9 0 001.174-.08c.16-.014.302-.03.425-.045.245-.03.415-.063.504-.098.044-.017.068-.036.071-.054.186-.43.57-4.095.715-6.114l.006-.085c.009-.126.017-.249.023-.36l.007-.112.012-.256c.003-.056.003-.096.005-.143 0-.047.003-.101.003-.14 0-.076 0-.137-.006-.175-.073-.66.063-11.74.087-22.316.015-6.345-.012-12.508-.148-16.128M75.218 59.785c.867.034 5.999.018 12.733-.002-6.758-.02-15.13-.046-22.469-.033 4.255.01 8.107.03 9.226.042.168-.007.337-.014.51-.007m53.563.123c.088.003.474-.007.995-.017-.008-.004-.008-.016-.016-.02-.144-.161-4.74-.01-5.306-.038-.856-.09-7.872-.097-14.034-.083 7.653.014 14.17.072 16.53.222.528-.072.872-.09 1.831-.064" fill="#FFF"/><path d="M134.425 84.027a31.674 31.674 0 00-.009.526l-.004.446c-.005.547-.007 1.164-.017 1.909v.009l-.006.463-.006.37-.003.207-.013.634c-.004.135-5.86.115-6.935.128-.071.002-.122.002-.147.004a8976.527 8976.527 0 01-30.97.183l-3.926.017c-1.464.007-2.955.011-4.438.017l3.576.014c6.042.019 12.086.032 17.656.033 3.094 0 6.043-.004 8.762-.011l1.604-.006a1715.868 1715.868 0 004.443-.023 723.63 723.63 0 004.92-.05 225.72 225.72 0 003.54-.073c.46-.014.854-.03 1.174-.046.16-.008.302-.017.425-.026.245-.017 1.29-.083 1.294-.093.079-.105-.34-2.049-.918-4.72l-.002.088m-33.741-24.242c.174-.007.342 0 .511.007 1.118-.012 4.97-.032 9.225-.042-7.34-.013-15.71.012-22.47.033 6.736.02 11.867.036 12.734.002m-51.731.188c2.359-.151 8.877-.208 16.53-.223-6.162-.014-13.179-.006-14.035.083-.565.027-5.16-.123-5.306.038-.008.005-.008.016-.015.02.52.01.908.02.994.017.96-.026 1.303-.008 1.832.065" fill="#FFF"/><path d="M96.316 88.906c2.59-.011 5.115-.024 7.537-.036a8976.527 8976.527 0 0023.58-.15c1.074-.014 6.93.006 6.934-.13.004-.22.01-.43.012-.632l.004-.208.006-.37.007-.463v-.009c.009-.745.011-1.362.016-1.91l.004-.445c0-.054.002-.106.003-.16l.006-.366.002-.088c-.785-3.627-1.867-8.603-2.413-12.21-.547-3.615-1.827-7.392-1.963-9.478-.078-1.183.201-2.075-.275-2.36-.52.01-.908.02-.995.017-.959-.025-1.303-.008-1.831.065-2.359-.151-8.877-.208-16.53-.223-4.255.01-8.107.03-9.225.042-.169-.007-.338-.014-.51-.007-.868.034-6 .018-12.734-.002-6.734.02-11.866.036-12.733.002a5.97 5.97 0 00-.51.007c-1.12-.011-4.97-.032-9.225-.042-7.653.015-14.172.072-16.53.223-.528-.073-.873-.09-1.832-.065-.087.003-.473-.007-.995-.017-.477.285-.198 1.177-.275 2.36-.136 2.086-1.416 5.863-1.963 9.477-.546 3.608-1.627 8.585-2.412 12.211a557.56 557.56 0 01.008.455l.002.159.004.446c.005.547.008 1.164.017 1.91v.008l.007.462c.002.12-.159.228-.156.353 0 .07 0 .171.002.243.003.202-.006.44 0 .661.002.135 6.035.07 7.11.084.072 0 .122.002.148.003a8974.036 8974.036 0 0030.969.183c1.295.007 2.606.012 3.927.018l4.437.016 4.438-.016c1.32-.006 2.631-.011 3.927-.018" fill="#7BCCFF"/><path d="M88.411 88.927l.734-.007-1.194.005.46.002m9.847-5.003c-.785-3.627-1.867-8.603-2.412-12.21-.548-3.615-1.827-7.392-1.964-9.478-.078-1.183.201-2.075-.275-2.36-.008-.004-.008-.015-.016-.02-.013-.014-.097-.023-.173-.033a10.788 10.788 0 00-.982-.042l-4.485-.013c-.35 0-.674.002-1.015.003.21.003.397.008.564.012a10.76 10.76 0 00-1.062.04c-.077.01-.162.019-.175.033-.007.005-.007.016-.015.02-.477.285-.198 1.177-.275 2.36-.136 2.086-1.416 5.863-1.963 9.477-.546 3.608-1.628 8.585-2.413 12.211l.002.088c.002.12.005.242.006.367l.003.159c.001.144.002.292.005.446.004.547.007 1.164.016 1.909v.009l.006.462c.002.12-.158.228-.155.353v.242c.005.203-.004.44 0 .662.004.135 6.037.07 7.112.083l.148.004 1.188.01c1.396.01 3.97.029 7.39.05l.14-.005c.16-.008.3-.017.423-.026.246-.017 1.292-.083 1.295-.093.079-.106-.34-2.049-.918-4.72M49.76 111.295l-.427 4.294.14.042 3.59-4.04-3.303-.296m.455-1.421c1.326.119 2.574.23 3.873.348-.226-.992-.528-1.862-1.099-2.605-.501-.652-1.02-.67-1.577-.07-.591.639-.881 1.441-1.197 2.327m4.165 8.298l-4.902-.441c.08.598.134 1.116.23 1.627.02.11.181.268.29.277 1.236.113 2.474.196 3.712.298.23.018.339-.066.38-.29.087-.47.184-.937.29-1.47m-.018-6.367l-3.75 4.492 3.908.326c.133-1.616.147-3.17-.158-4.818m-.149 10.693c-1.556-1-3.138-.968-4.833-.356-.172-.725-.378-1.404-.492-2.099-.609-3.726-.553-7.442.336-11.116a9.097 9.097 0 011.041-2.558c1.017-1.669 2.87-1.642 3.826.065a8.93 8.93 0 011 2.759c.728 4.115.588 8.214-.501 12.262-.09.332-.233.65-.377 1.043m-5.12 3.76c-.201-1.473.762-2.8 2.174-2.993 1.387-.19 2.638.798 2.833 2.236.2 1.472-.768 2.807-2.173 2.996-1.386.186-2.637-.802-2.834-2.24" fill="#000"/><path d="M102.327 121.971c6.8-.393 16.379-.665 23.2-.687.212 0 .47-.11.52-.283a8.63 8.63 0 00.267-2.379c.55-2.198.316-8.386.399-10.566.1-2.683.202-5.36.303-8.043a.324.324 0 00.013-.338l-1.027-.16-.001.028c-7.323.392-15.875.056-23.192.558-.654.045-1.517 21.929-.482 21.87" fill="#FFF"/><path d="M106.566 103.256c5.288.243 10.558.32 15.859.336.679.002.68-1.07 0-1.072-5.213-.016-10.437-.114-15.647.065-.596.02-.598.92 0 .941 5.21.18 10.434.082 15.647.066.678-.002.68-1.074 0-1.072-5.3.016-10.571.093-15.86.335-.253.012-.254.39 0 .401m-.052 4.732c2.188.428 4.523.254 6.739.266 3.057.016 6.115-.02 9.172-.002.58.004.581-.913 0-.915a200.61 200.61 0 00-3.555.011c-.566.008-.566.885 0 .893 1.186.017 2.37.016 3.555.011.58-.002.581-.918 0-.915-3.057.019-6.115-.018-9.172-.002-2.217.012-4.551-.162-6.739.266-.188.038-.188.35 0 .387m-.013 4.354c2.5.442 5.163.226 7.692.23 2.744.003 5.489 0 8.233 0 .596 0 .596-.94 0-.94-4.877 0-9.753-.043-14.63-.074-.692-.005-.692 1.086 0 1.09 4.115.027 8.23.007 12.346.011.705.001.706-1.112 0-1.113-4.514-.005-9.065-.18-13.575.014-.688.03-.69 1.056 0 1.086 4.51.193 9.06.019 13.575.013.705-.001.706-1.114 0-1.113-4.116.005-8.231-.016-12.346.012-.691.004-.692 1.094 0 1.09 4.877-.032 9.753-.074 14.63-.075.596 0 .596-.94 0-.94-2.744 0-5.49-.002-8.233.001-2.529.004-5.193-.213-7.691.229-.234.041-.234.438 0 .48" fill="#000"/><path d="M109.866 48.902c-.057-1.517.16-2.666-.212-3.006-.105-.204-3.451-.013-3.863-.049-1.053-.19-18.786-.087-20.78-.05a2.561 2.561 0 00-.371-.01c-1.925.131-32.661-.319-37.667.237-.385-.092-.635-.113-1.334-.082-.238.015-3.449-.193-4.002.175-.318.144-.141.272-.212 1.13-.084.335-.061.844-.207 1.533h.002c-.825 4.246 0 14.664-.002 17.535 0 .418.001.678.002.74l.001.056c.017 1.534.106 3.067.192 4.6-.01.2-.009.404-.001.61.007.207.02.416.039.626-.017.17-.025.347-.015.534a81.207 81.207 0 01.062 1.448l.001.048c.007.191.011.378.016.566 0 .044.002.088.003.131l.01.579.002.16.005.464.001.201c.001.182.003.37.003.563.004.691.006 1.47.013 2.412v.011l.004.585.005.468c0 .088 0 .172.002.262l.01.8c.002.17 4.266.146 5.048.162.053.002.09.003.108.005a4886.095 4886.095 0 0022.549.232l2.86.021c1.923.014 3.878.027 5.834.038 4.4.025 8.8.04 12.856.042a1237.349 1237.349 0 007.548-.021 631.428 631.428 0 003.235-.03 279.23 279.23 0 003.582-.062 93.745 93.745 0 002.578-.092c.336-.018.621-.038.855-.059.116-.01.22-.021.309-.032a1.8 1.8 0 00.367-.072c.032-.013.05-.026.052-.04.136-.312.415-2.98.52-4.45l.004-.063c.007-.092.013-.181.017-.261a4.09 4.09 0 00.005-.083l.01-.186c.002-.04.002-.07.002-.104a2.905 2.905 0 00-.001-.23c-.054-.48.046-8.548.063-16.249.01-4.62-.009-9.106-.108-11.743M66.097 25.82c.632.025 4.368.014 9.272-.001a3507.3 3507.3 0 00-16.36-.025c3.098.008 5.902.023 6.717.031.122-.005.245-.01.371-.005m39.001.09c.064.002.345-.005.725-.012-.006-.004-.006-.012-.012-.015-.106-.118-3.452-.008-3.864-.028-.623-.065-5.732-.07-10.218-.06 5.571.01 10.318.052 12.036.162.384-.053.635-.066 1.333-.048" fill="#FFF"/><path d="M109.208 43.471a32.22 32.22 0 00-.005.268l-.002.116-.003.324c-.003.398-.005.848-.012 1.39v.007l-.005.337a334.527 334.527 0 00-.007.42c-.002.147-.006.3-.01.462-.001.098-4.265.084-5.048.093l-.108.002a6329.018 6329.018 0 01-22.549.134l-2.86.012-3.23.013 2.603.01c4.4.014 8.8.023 12.856.024a2068.097 2068.097 0 009.752-.023l1.03-.006c1.342-.01 2.546-.022 3.583-.036 1.037-.015 1.906-.033 2.577-.054.336-.01.623-.021.855-.033.117-.006.22-.012.31-.02.178-.012.94-.06.942-.067.058-.076-.247-1.492-.668-3.437l-.001.064M84.64 25.82c.126-.005.249 0 .372.005.814-.008 3.619-.023 6.717-.03a3507.3 3507.3 0 00-16.36.024c4.903.015 8.64.026 9.27.001m-37.666.137c1.717-.11 6.463-.152 12.036-.162-4.487-.01-9.596-.005-10.219.06-.412.02-3.758-.09-3.864.028-.006.003-.006.011-.011.015.38.007.66.014.725.011.697-.018.948-.005 1.333.048" fill="#FFF"/><path d="M81.459 47.024a6326.677 6326.677 0 0022.657-.136c.782-.01 5.046.004 5.05-.093.002-.162.006-.315.009-.461 0-.053 0-.1.002-.152l.004-.27.005-.336v-.007c.006-.542.008-.992.012-1.39l.003-.324a184.367 184.367 0 01.008-.448c-.572-2.64-1.36-6.264-1.757-8.89-.398-2.632-1.33-5.382-1.43-6.901-.056-.86.147-1.511-.2-1.718-.379.007-.66.014-.724.012-.698-.019-.949-.006-1.334.047-1.717-.11-6.463-.152-12.035-.162-3.099.007-5.903.022-6.717.03-.123-.005-.246-.01-.372-.005-.632.025-4.368.014-9.271-.001-4.904.015-8.64.026-9.271.001-.127-.005-.25 0-.372.006-.815-.01-3.62-.024-6.718-.031-5.571.01-10.318.052-12.035.162-.385-.053-.635-.066-1.334-.047-.063.002-.344-.005-.724-.012-.347.207-.144.857-.2 1.718-.1 1.519-1.031 4.269-1.43 6.9-.397 2.627-1.184 6.251-1.757 8.891l.002.064.005.268v.116c.002.104.004.212.004.324.004.398.006.848.013 1.39v.007c0 .109.002.22.004.337.002.086-.115.165-.113.256v.176c.003.148-.003.321 0 .482.003.099 4.396.052 5.178.061l.108.002a6329.018 6329.018 0 0022.55.134l2.858.012 3.232.013 3.23-.013 2.86-.012" fill="#7BCCFF"/><path d="M75.704 47.039l.534-.005-.87.004.336.001m7.169-3.643c-.572-2.64-1.359-6.263-1.757-8.89-.398-2.632-1.33-5.382-1.43-6.901-.056-.86.148-1.511-.199-1.718-.006-.003-.006-.012-.012-.015-.009-.01-.07-.017-.126-.024a8.096 8.096 0 00-.774-.03h.059l-3.266-.01-.739.002c.153.003.29.005.41.009a8.107 8.107 0 00-.773.029c-.055.007-.116.013-.126.024-.006.003-.006.012-.012.015-.347.207-.143.857-.2 1.718-.099 1.519-1.031 4.269-1.43 6.9-.396 2.628-1.184 6.25-1.756 8.891l.002.065a454.195 454.195 0 01.006.383l.003.324c.003.398.006.848.012 1.39v.007l.005.337c0 .086-.115.165-.114.256 0 .051 0 .124.002.176.002.148-.004.322 0 .482.002.099 4.395.052 5.177.061l.108.002c-.003.001.308.003.864.008 1.018.008 2.891.02 5.382.037l.101-.005.31-.018c.178-.013.94-.06.942-.068.057-.077-.247-1.491-.669-3.437M47.56 63.326l-.31 3.127.101.03 2.614-2.942-2.405-.215m.332-1.035l2.82.253c-.165-.721-.384-1.355-.8-1.896-.365-.476-.743-.489-1.149-.05-.43.464-.641 1.048-.871 1.693m3.033 6.043a5959.5 5959.5 0 00-3.57-.322c.059.436.098.813.167 1.185.015.08.133.195.211.201.9.082 1.802.143 2.703.217.168.014.247-.048.278-.212.062-.34.133-.68.21-1.07m-.013-4.636l-2.73 3.271 2.846.238c.096-1.177.107-2.308-.116-3.509m-.108 7.787c-1.133-.728-2.285-.705-3.519-.26-.125-.527-.275-1.021-.358-1.528-.444-2.713-.403-5.418.244-8.093a6.618 6.618 0 01.759-1.863c.74-1.215 2.09-1.195 2.785.047a6.51 6.51 0 01.728 2.009c.53 2.997.429 5.981-.365 8.928-.065.243-.17.473-.274.76m-3.728 2.738c-.147-1.073.555-2.039 1.583-2.18 1.01-.137 1.921.582 2.063 1.628.145 1.072-.56 2.045-1.582 2.182-1.01.135-1.92-.584-2.064-1.63" fill="#000"/><path d="M85.836 71.1c4.95-.286 11.926-.485 16.892-.5.155-.001.343-.08.379-.207a6.277 6.277 0 00.194-1.732c.4-1.6.23-6.106.29-7.694l.222-5.856a.235.235 0 00.01-.246l-.749-.116v.02c-5.332.285-11.559.04-16.887.407-.476.032-1.105 15.966-.351 15.924" fill="#FFF"/><path d="M88.922 57.473c3.852.177 7.688.233 11.548.244.494.002.495-.779 0-.78-3.796-.011-7.6-.084-11.393.047-.434.015-.435.67 0 .686 3.793.13 7.597.058 11.393.047.494-.002.495-.782 0-.78-3.86.011-7.696.067-11.548.244-.184.008-.185.283 0 .292m-.038 3.445c1.57.307 3.252.185 4.842.194 2.248.011 4.497-.027 6.743-.002.423.005.423-.664 0-.666-.863-.003-1.725-.004-2.588.008-.412.006-.413.644 0 .65.863.013 1.725.012 2.588.008.423-.001.423-.67 0-.666-2.246.025-4.495-.013-6.743 0-1.592.007-3.27-.115-4.842.193-.137.027-.137.254 0 .28m-.009 3.172c3.769.543 7.793.166 11.595.167.433 0 .434-.684 0-.684-3.551 0-7.102-.032-10.653-.055-.503-.003-.504.79 0 .794 2.996.02 5.993.004 8.99.008.513.001.514-.81 0-.81-3.29-.004-6.596-.097-9.885.01-.5.016-.502.774 0 .79 3.289.107 6.594.014 9.885.01.513 0 .514-.81 0-.81-2.997.004-5.994-.012-8.99.008-.503.003-.504.798 0 .794 3.55-.023 7.102-.054 10.653-.055.433 0 .434-.684 0-.684-3.802 0-7.827-.376-11.595.167-.17.025-.17.325 0 .35" fill="#000"/></g></svg>